<svg width="100%" height="100%" viewBox="0 0 20 20" fill="none" xmlns="http://www.w3.org/2000/svg">
<path d="M1.66602 18.3331H18.3327M5.29935 14.4998L3.33268 14.1664L1.66602 10.8331L2.58268 10.3748C2.81531 10.2576 3.07218 10.1965 3.33268 10.1965C3.59318 10.1965 3.85005 10.2576 4.08268 10.3748L4.22435 10.4581C4.45698 10.5753 4.71385 10.6364 4.97435 10.6364C5.23485 10.6364 5.49172 10.5753 5.72435 10.4581L6.66602 9.99978L4.16602 4.99978L4.91602 4.62478C5.19324 4.4884 5.50292 4.43176 5.81048 4.46119C6.11803 4.49062 6.41135 4.60496 6.65768 4.79144L10.0077 7.29144C10.2549 7.47954 10.5497 7.59481 10.8589 7.62426C11.1681 7.65371 11.4794 7.59616 11.7577 7.45811L15.2493 5.74144C15.6955 5.51652 16.2096 5.46601 16.691 5.59978L17.4993 5.83311C17.6664 5.87949 17.8209 5.9625 17.9519 6.07611C18.0828 6.18972 18.1867 6.33108 18.2561 6.4899C18.3256 6.64872 18.3588 6.82101 18.3533 6.99426C18.3478 7.16751 18.3037 7.33735 18.2244 7.49144L17.9077 8.12478C17.716 8.50811 17.4077 8.82478 17.016 9.02478L6.31602 14.3331C6.00139 14.489 5.64558 14.5414 5.29935 14.4831V14.4998Z" stroke="currentColor" stroke-width="2" stroke-linecap="round" stroke-linejoin="round"/>
</svg>
