<svg width="100%" height="100%" viewBox="0 0 30 30" fill="none" xmlns="http://www.w3.org/2000/svg">
<path d="M18.7921 16.5469V22.186L21.5812 21.0047L24.3702 22.186V16.5469C25.5421 15.6703 26.2359 14.3156 26.2359 12.8391C26.2359 10.275 24.1499 8.18439 21.5859 8.18439C19.0218 8.18439 16.9312 10.2703 16.9312 12.8391C16.9265 14.3156 17.6202 15.6703 18.7921 16.5469ZM22.8937 19.9641L21.5812 19.4063L20.2687 19.9641V17.3016C20.2781 17.3016 20.2827 17.3063 20.2921 17.3063C20.4656 17.3578 20.6484 17.3953 20.8265 17.4234C20.8593 17.4281 20.8921 17.4375 20.9249 17.4422C21.1406 17.475 21.3609 17.4891 21.5859 17.4891C21.8062 17.4891 22.0265 17.4703 22.2468 17.4422C22.2843 17.4375 22.3171 17.4281 22.3499 17.4188C22.5281 17.3906 22.7062 17.3531 22.8749 17.3016C22.8843 17.3016 22.889 17.2969 22.8984 17.2969V19.9641H22.8937ZM21.5812 9.66095C23.3343 9.66095 24.7593 11.0859 24.7593 12.8391C24.7593 13.9453 24.1921 14.9578 23.2452 15.5391C22.4296 16.0406 21.4171 16.1297 20.5265 15.8203C20.4562 15.7969 20.3812 15.7734 20.3109 15.7453C19.7456 15.4999 19.2646 15.0944 18.9273 14.5788C18.5899 14.0631 18.4109 13.46 18.4124 12.8438C18.4031 11.0859 19.8281 9.66095 21.5812 9.66095Z" fill="currentColor"/>
<path d="M2.47031 25.561H27.525C28.8891 25.561 29.9953 24.45 29.9953 23.0906V6.9094C29.9953 5.54534 28.8844 4.43909 27.525 4.43909H2.47031C1.81514 4.43909 1.18681 4.69935 0.723538 5.16262C0.260264 5.6259 0 6.25423 0 6.9094L0 23.0906C0 23.7458 0.260264 24.3742 0.723538 24.8374C1.18681 25.3007 1.81514 25.561 2.47031 25.561ZM1.47656 6.9094C1.47656 6.36096 1.92188 5.91096 2.47031 5.91096H27.525C28.0734 5.91096 28.5234 6.35627 28.5234 6.9094V23.0906C28.5234 23.6391 28.0734 24.0891 27.525 24.0891H2.47031C1.92188 24.0891 1.47656 23.6438 1.47656 23.0906V6.9094Z" fill="currentColor"/>
<path d="M4.21411 9.11487C4.21411 8.70713 4.54465 8.37659 4.95239 8.37659H14.0508C14.4586 8.37659 14.7891 8.70713 14.7891 9.11487C14.7891 9.52261 14.4586 9.85315 14.0508 9.85315H4.95239C4.54465 9.85315 4.21411 9.52261 4.21411 9.11487ZM4.21411 13.0383C4.21411 12.6306 4.54465 12.3 4.95239 12.3H14.0508C14.4586 12.3 14.7891 12.6306 14.7891 13.0383C14.7891 13.446 14.4586 13.7766 14.0508 13.7766H4.95239C4.54465 13.7766 4.21411 13.446 4.21411 13.0383ZM4.21411 16.9617C4.21411 16.554 4.54465 16.2235 4.95239 16.2235H12.1758C12.5836 16.2235 12.9141 16.554 12.9141 16.9617C12.9141 17.3695 12.5836 17.7 12.1758 17.7H4.95239C4.54465 17.7 4.21411 17.3695 4.21411 16.9617ZM4.21411 20.8852C4.21411 20.4774 4.54465 20.1469 4.95239 20.1469H9.36333C9.77107 20.1469 10.1016 20.4774 10.1016 20.8852C10.1016 21.2929 9.77107 21.6235 9.36333 21.6235H4.95239C4.54465 21.6235 4.21411 21.2929 4.21411 20.8852Z" fill="currentColor"/>
</svg>
