<svg width="100%" height="100%" viewBox="0 0 16 16" fill="none" xmlns="http://www.w3.org/2000/svg">
<path d="M2.3999 7.99999C2.3999 7.33725 2.93716 6.79999 3.5999 6.79999C4.26264 6.79999 4.7999 7.33725 4.7999 7.99999C4.7999 8.66273 4.26264 9.19999 3.5999 9.19999C2.93716 9.19999 2.3999 8.66273 2.3999 7.99999Z" fill="currentColor"/>
<path d="M6.7999 7.99999C6.7999 7.33725 7.33716 6.79999 7.9999 6.79999C8.66264 6.79999 9.1999 7.33725 9.1999 7.99999C9.1999 8.66273 8.66264 9.19999 7.9999 9.19999C7.33716 9.19999 6.7999 8.66273 6.7999 7.99999Z" fill="currentColor"/>
<path d="M12.3999 6.79999C11.7372 6.79999 11.1999 7.33725 11.1999 7.99999C11.1999 8.66273 11.7372 9.19999 12.3999 9.19999C13.0626 9.19999 13.5999 8.66273 13.5999 7.99999C13.5999 7.33725 13.0626 6.79999 12.3999 6.79999Z" fill="currentColor"/>
</svg>
