<svg width="100%" height="100%" viewBox="0 0 80 80" fill="none" xmlns="http://www.w3.org/2000/svg">
<path d="M35.3124 71.875H34.0624V60.3125C34.0624 57.7279 31.9596 55.625 29.3749 55.625H7.49998C4.9153 55.625 2.81249 57.7279 2.81249 60.3125V71.875H1.5625C0.69953 71.875 0 72.5745 0 73.4375V75.3125C0 77.8972 2.10281 80 4.68749 80H32.1874C34.7721 80 36.8749 77.8972 36.8749 75.3125V73.4375C36.8749 72.5745 36.1754 71.875 35.3124 71.875ZM5.93749 60.3125C5.93749 59.451 6.63842 58.75 7.49998 58.75H29.3749C30.2365 58.75 30.9374 59.451 30.9374 60.3125V71.875H5.93749V60.3125ZM33.7499 75.3125C33.7499 76.1741 33.049 76.875 32.1874 76.875H4.68749C3.82593 76.875 3.12499 76.1741 3.12499 75.3125V75H33.7499V75.3125ZM78.4373 71.875H77.1873V60.3125C77.1873 57.7279 75.0845 55.625 72.4999 55.625H50.6249C48.0402 55.625 45.9374 57.7279 45.9374 60.3125V71.875H44.6874C43.8244 71.875 43.1249 72.5745 43.1249 73.4375V75.3125C43.1249 77.8972 45.2277 80 47.8124 80H75.3123C77.897 80 79.9998 77.8972 79.9998 75.3125V73.4375C79.9998 72.5745 79.3003 71.875 78.4373 71.875ZM49.0624 60.3125C49.0624 59.451 49.7633 58.75 50.6249 58.75H72.4999C73.3614 58.75 74.0624 59.451 74.0624 60.3125V71.875H49.0624V60.3125ZM76.8748 75.3125C76.8748 76.1741 76.1739 76.875 75.3123 76.875H47.8124C46.9508 76.875 46.2499 76.1741 46.2499 75.3125V75H76.8748V75.3125ZM52.5227 20.6436C51.7683 20.2246 50.8172 20.4964 50.398 21.2506L50.3874 21.2701C49.9819 22.0217 50.2554 22.9617 51.004 23.3775C51.1833 23.4771 51.3806 23.5405 51.5844 23.5639C51.7883 23.5874 51.9948 23.5704 52.1921 23.514C52.3894 23.4576 52.5737 23.3629 52.7344 23.2353C52.8951 23.1077 53.029 22.9497 53.1286 22.7703L53.1393 22.7507C53.5449 21.9993 53.2715 21.0593 52.5227 20.6436Z" fill="currentColor"/>
<path d="M62.3938 14.1773C61.5584 14.1773 60.7295 14.2523 59.9155 14.4011C58.7663 10.5678 56.4728 7.11672 53.348 4.55969C49.7547 1.61937 45.2136 0 40.5616 0C36.397 0 32.398 1.25688 28.9972 3.63484C26.105 5.65703 23.8194 8.35859 22.3198 11.5103C21.3741 11.2277 20.3917 11.0852 19.3839 11.0852C13.7264 11.0852 9.12344 15.6855 9.12344 21.34C9.12344 21.6753 9.14016 22.0117 9.17359 22.3475C5.93719 24.1419 3.90625 27.537 3.90625 31.3078C3.90625 36.9623 8.50906 41.5627 14.1667 41.5627H38.4375V43.2814C38.4375 44.1444 39.137 44.8439 40 44.8439C40.863 44.8439 41.5625 44.1444 41.5625 43.2814V41.5627H62.3938C69.9481 41.5627 76.0941 35.4202 76.0941 27.87C76.0941 20.3198 69.948 14.1773 62.3938 14.1773ZM62.3938 38.4377H14.1667C10.2323 38.4377 7.03125 35.2392 7.03125 31.3078C7.03125 28.3909 8.78 25.7972 11.4866 24.6997C11.8296 24.5606 12.1121 24.3043 12.2838 23.9764C12.4555 23.6485 12.5052 23.2703 12.4241 22.9092C12.3079 22.3943 12.249 21.868 12.2484 21.3402C12.2484 17.4087 15.4494 14.2103 19.3839 14.2103C20.47 14.2103 21.5125 14.4477 22.4822 14.9156C22.6767 15.0096 22.8887 15.0622 23.1046 15.0701C23.3205 15.0779 23.5357 15.0409 23.7366 14.9614C23.9375 14.8818 24.1197 14.7615 24.2717 14.6079C24.4237 14.4543 24.5422 14.2709 24.6197 14.0692C27.1367 7.52297 33.5433 3.125 40.5616 3.125C48.1192 3.125 54.7964 8.17812 56.9247 15.3153C56.1176 15.6659 55.3463 16.0936 54.6216 16.5927C53.9113 17.0825 53.7323 18.0555 54.2222 18.7659C54.3659 18.9746 54.5582 19.1451 54.7825 19.2629C55.0069 19.3806 55.2565 19.4419 55.5098 19.4416C55.8263 19.4417 56.1353 19.3453 56.3955 19.1652C57.382 18.4838 58.478 17.9764 59.6358 17.665C60.5351 17.4235 61.4623 17.3016 62.3934 17.3023C68.2247 17.3023 72.9688 22.043 72.9688 27.87C72.9688 33.697 68.225 38.4377 62.3938 38.4377ZM34.0625 46.8752H18.4375C17.5745 46.8752 16.875 47.5747 16.875 48.4377V51.2502C16.875 52.1131 17.5745 52.8127 18.4375 52.8127C19.3005 52.8127 20 52.1131 20 51.2502V50.0002H34.0625C34.9255 50.0002 35.625 49.3006 35.625 48.4377C35.625 47.5747 34.9255 46.8752 34.0625 46.8752ZM40.0911 46.8752H40C39.137 46.8752 38.4375 47.5747 38.4375 48.4377C38.4375 49.3006 39.137 50.0002 40 50.0002H40.0913C40.9542 50.0002 41.6536 49.3006 41.6536 48.4377C41.6536 47.5747 40.9542 46.8752 40.0911 46.8752ZM61.5625 46.8752H45.9895C45.1266 46.8752 44.427 47.5747 44.427 48.4377C44.427 49.3006 45.1266 50.0002 45.9895 50.0002H60V51.2502C60 52.1131 60.6995 52.8127 61.5625 52.8127C62.4255 52.8127 63.125 52.1131 63.125 51.2502V48.4377C63.125 47.5747 62.4255 46.8752 61.5625 46.8752Z" fill="currentColor"/>
</svg>
