<svg width="100%" height="100%" viewBox="0 0 30 30" fill="none" xmlns="http://www.w3.org/2000/svg">
<path d="M19.6875 26.9531H3.75C3.19075 26.9525 2.65458 26.7301 2.25913 26.3346C1.86368 25.9392 1.64125 25.403 1.64062 24.8438V7.14375C1.64062 6.58969 1.86563 6.04547 2.25938 5.65313L5.65313 2.25938C6.04914 1.86489 6.58478 1.64255 7.14375 1.64062H21.0938C22.2567 1.64062 23.2031 2.58703 23.2031 3.75V14.5312C23.2031 14.7177 23.129 14.8966 22.9972 15.0284C22.8653 15.1603 22.6865 15.2344 22.5 15.2344C22.3135 15.2344 22.1347 15.1603 22.0028 15.0284C21.871 14.8966 21.7969 14.7177 21.7969 14.5312V3.75C21.7969 3.36234 21.4814 3.04688 21.0938 3.04688H7.14375C6.95953 3.04688 6.77813 3.12188 6.64688 3.25313L3.25313 6.64688C3.12188 6.77813 3.04688 6.95953 3.04688 7.14375V24.8438C3.04688 25.2314 3.36234 25.5469 3.75 25.5469H19.6875C19.874 25.5469 20.0528 25.621 20.1847 25.7528C20.3165 25.8847 20.3906 26.0635 20.3906 26.25C20.3906 26.4365 20.3165 26.6153 20.1847 26.7472C20.0528 26.879 19.874 26.9531 19.6875 26.9531Z" fill="currentColor"/>
<path d="M6.09375 8.20312H2.34375C2.15727 8.20312 1.97843 8.12905 1.84657 7.99718C1.7147 7.86532 1.64062 7.68648 1.64062 7.5C1.64062 7.31352 1.7147 7.13468 1.84657 7.00282C1.97843 6.87095 2.15727 6.79688 2.34375 6.79688H6.09375C6.48141 6.79688 6.79688 6.48141 6.79688 6.09375V2.34375C6.79688 2.15727 6.87095 1.97843 7.00282 1.84657C7.13468 1.7147 7.31352 1.64063 7.5 1.64062C7.68648 1.64062 7.86532 1.7147 7.99718 1.84657C8.12905 1.97843 8.20312 2.15727 8.20312 2.34375V6.09375C8.20312 7.25672 7.25672 8.20312 6.09375 8.20312ZM19.2188 7.26562H9.84375C9.65727 7.26562 9.47843 7.19155 9.34657 7.05968C9.2147 6.92782 9.14062 6.74898 9.14062 6.5625C9.14062 6.37602 9.2147 6.19718 9.34657 6.06532C9.47843 5.93345 9.65727 5.85938 9.84375 5.85938H19.2188C19.4052 5.85938 19.5841 5.93345 19.7159 6.06532C19.8478 6.19718 19.9219 6.37602 19.9219 6.5625C19.9219 6.74898 19.8478 6.92782 19.7159 7.05968C19.5841 7.19155 19.4052 7.26562 19.2188 7.26562ZM19.2188 11.4844H5.625C5.43852 11.4844 5.25968 11.4103 5.12782 11.2784C4.99595 11.1466 4.92188 10.9677 4.92188 10.7812C4.92188 10.5948 4.99595 10.4159 5.12782 10.2841C5.25968 10.1522 5.43852 10.0781 5.625 10.0781H19.2188C19.4052 10.0781 19.5841 10.1522 19.7159 10.2841C19.8478 10.4159 19.9219 10.5948 19.9219 10.7812C19.9219 10.9677 19.8478 11.1466 19.7159 11.2784C19.5841 11.4103 19.4052 11.4844 19.2188 11.4844ZM13.5938 15.937H5.625C5.43852 15.937 5.25968 15.863 5.12782 15.7311C4.99595 15.5992 4.92188 15.4204 4.92188 15.2339C4.92188 15.0474 4.99595 14.8686 5.12782 14.7367C5.25968 14.6049 5.43852 14.5308 5.625 14.5308H13.5938C13.7802 14.5308 13.9591 14.6049 14.0909 14.7367C14.2228 14.8686 14.2969 15.0474 14.2969 15.2339C14.2969 15.4204 14.2228 15.5992 14.0909 15.7311C13.9591 15.863 13.7802 15.937 13.5938 15.937ZM9.375 20.8594H5.625C5.43852 20.8594 5.25968 20.7853 5.12782 20.6534C4.99595 20.5216 4.92188 20.3427 4.92188 20.1562C4.92188 19.9698 4.99595 19.7909 5.12782 19.6591C5.25968 19.5272 5.43852 19.4531 5.625 19.4531H9.375C9.56148 19.4531 9.74032 19.5272 9.87218 19.6591C10.004 19.7909 10.0781 19.9698 10.0781 20.1562C10.0781 20.3427 10.004 20.5216 9.87218 20.6534C9.74032 20.7853 9.56148 20.8594 9.375 20.8594ZM22.5 28.3594C22.3842 28.3594 22.2684 28.3303 22.1634 28.2731L18.473 26.2603C17.9184 25.9581 17.4555 25.5119 17.133 24.9688C16.8106 24.4257 16.6405 23.8057 16.6406 23.1741V16.0687C16.6407 15.9174 16.6895 15.7701 16.78 15.6487C16.8704 15.5274 16.9976 15.4384 17.1427 15.3952L22.2989 13.8577C22.4245 13.8192 22.5586 13.8183 22.6852 13.853L27.8414 15.2587C27.9902 15.2994 28.1215 15.3878 28.2151 15.5103C28.3087 15.6329 28.3594 15.7828 28.3594 15.937V23.1745C28.3595 23.806 28.1894 24.4259 27.867 24.9689C27.5446 25.5119 27.0819 25.958 26.5275 26.2603L22.8366 28.2731C22.7316 28.3303 22.6162 28.3594 22.5 28.3594ZM18.0469 16.5928V23.1741C18.0468 23.5532 18.1489 23.9253 18.3424 24.2513C18.5359 24.5773 18.8137 24.8451 19.1466 25.0266L22.5 26.8547L25.8539 25.0261C26.1867 24.8446 26.4644 24.5767 26.6578 24.2507C26.8512 23.9247 26.9533 23.5527 26.9531 23.1736V16.4742L22.5089 15.2625L18.0469 16.5928Z" fill="currentColor"/>
<path d="M22.0312 22.7349C21.8835 22.7349 21.7349 22.6885 21.6093 22.5942L19.7343 21.188C19.5927 21.0735 19.501 20.9084 19.4785 20.7277C19.4561 20.5469 19.5046 20.3645 19.6139 20.2187C19.7232 20.073 19.8847 19.9754 20.0645 19.9463C20.2444 19.9173 20.4285 19.9591 20.5781 20.063L21.9656 21.1036L24.3468 18.7214C24.4117 18.6543 24.4893 18.6008 24.5751 18.564C24.6609 18.5272 24.7532 18.5078 24.8466 18.507C24.9399 18.5063 25.0325 18.5241 25.1189 18.5595C25.2053 18.5949 25.2838 18.6471 25.3498 18.7132C25.4157 18.7792 25.4679 18.8578 25.5032 18.9442C25.5385 19.0306 25.5563 19.1232 25.5554 19.2166C25.5546 19.3099 25.5351 19.4022 25.4983 19.488C25.4614 19.5737 25.4078 19.6513 25.3406 19.7161L22.5281 22.5286C22.3921 22.6655 22.2121 22.7349 22.0312 22.7349Z" fill="currentColor"/>
</svg>
