<svg width="100%" height="100%" viewBox="0 0 24 24" fill="none" xmlns="http://www.w3.org/2000/svg">
<path d="M4.47012 19.9999H19.5301C21.0701 19.9999 22.0301 18.3299 21.2601 16.9999L13.7301 3.98993C12.9601 2.65993 11.0401 2.65993 10.2701 3.98993L2.74012 16.9999C1.97012 18.3299 2.93012 19.9999 4.47012 19.9999ZM12.0001 12.9999C11.4501 12.9999 11.0001 12.5499 11.0001 11.9999V9.99993C11.0001 9.44993 11.4501 8.99993 12.0001 8.99993C12.5501 8.99993 13.0001 9.44993 13.0001 9.99993V11.9999C13.0001 12.5499 12.5501 12.9999 12.0001 12.9999ZM13.0001 16.9999H11.0001V14.9999H13.0001V16.9999Z" fill="currentColor"/>
</svg>
