<svg xmlns="http://www.w3.org/2000/svg" width="100%" height="100%" viewBox="0 0 22 22" fill="none">
  <path d="M20.8939 11.0032C20.6023 11.0032 20.3226 11.119 20.1163 11.3253C19.9101 11.5315 19.7943 11.8112 19.7943 12.1029V18.701C19.7943 18.9926 19.6784 19.2723 19.4722 19.4785C19.2659 19.6848 18.9862 19.8006 18.6946 19.8006H3.29904C3.00739 19.8006 2.72768 19.6848 2.52145 19.4785C2.31522 19.2723 2.19936 18.9926 2.19936 18.701V3.30542C2.19936 3.01377 2.31522 2.73406 2.52145 2.52783C2.72768 2.3216 3.00739 2.20574 3.29904 2.20574H9.89713C10.1888 2.20574 10.4685 2.08988 10.6747 1.88365C10.881 1.67742 10.9968 1.39771 10.9968 1.10606C10.9968 0.814404 10.881 0.534696 10.6747 0.328465C10.4685 0.122235 10.1888 0.00637633 9.89713 0.00637633H3.29904C2.42408 0.00637633 1.58496 0.353953 0.966268 0.972644C0.347577 1.59133 0 2.43046 0 3.30542V18.701C0 19.5759 0.347577 20.415 0.966268 21.0337C1.58496 21.6524 2.42408 22 3.29904 22H18.6946C19.5695 22 20.4087 21.6524 21.0274 21.0337C21.646 20.415 21.9936 19.5759 21.9936 18.701V12.1029C21.9936 11.8112 21.8778 11.5315 21.6715 11.3253C21.4653 11.119 21.1856 11.0032 20.8939 11.0032ZM4.39872 11.8389V16.5016C4.39872 16.7932 4.51458 17.073 4.72081 17.2792C4.92704 17.4854 5.20675 17.6013 5.49841 17.6013H10.1611C10.3058 17.6021 10.4492 17.5744 10.5832 17.5196C10.7172 17.4649 10.8391 17.3843 10.9418 17.2824L18.5516 9.66158L21.6747 6.60446C21.7778 6.50223 21.8596 6.38061 21.9154 6.2466C21.9713 6.1126 22 5.96886 22 5.82369C22 5.67852 21.9713 5.53478 21.9154 5.40078C21.8596 5.26677 21.7778 5.14515 21.6747 5.04292L17.0121 0.325284C16.9098 0.222212 16.7882 0.140402 16.6542 0.0845731C16.5202 0.0287437 16.3765 0 16.2313 0C16.0861 0 15.9424 0.0287437 15.8084 0.0845731C15.6744 0.140402 15.5527 0.222212 15.4505 0.325284L12.3494 3.43738L4.71763 11.0582C4.61571 11.1609 4.53508 11.2828 4.48035 11.4168C4.42563 11.5508 4.39789 11.6942 4.39872 11.8389ZM16.2313 2.65661L19.3434 5.76871L17.7818 7.33025L14.6697 4.21815L16.2313 2.65661ZM6.59809 12.2898L13.1192 5.76871L16.2313 8.8808L9.71018 15.4019H6.59809V12.2898Z" fill="currentColor"/>
</svg>
