<svg xmlns="http://www.w3.org/2000/svg" width="100%" height="100%" viewBox="0 0 36 34" fill="none">
  <path fill-rule="evenodd" clip-rule="evenodd" d="M4.50914 3.36093C3.74055 3.46432 3.41142 3.643 3.19387 3.86055C2.97631 4.07811 2.79764 4.40724 2.69424 5.17583C2.58597 5.98061 2.58332 7.05963 2.58332 8.66667V15.3333C2.58332 16.9404 2.58597 18.0194 2.69424 18.8242C2.79764 19.5928 2.97631 19.9219 3.19387 20.1395C3.41142 20.357 3.74055 20.5357 4.50914 20.6391C5.31393 20.7473 6.39295 20.75 7.99998 20.75H20.5C21.1903 20.75 21.75 21.3096 21.75 22C21.75 22.6904 21.1903 23.25 20.5 23.25L7.91325 23.25C6.41554 23.2501 5.16697 23.2501 4.17583 23.1168C3.12942 22.976 2.18521 22.6663 1.4261 21.9072C0.666988 21.1481 0.35733 20.2039 0.21656 19.1575C0.0832249 18.1664 0.0832658 16.9178 0.0833149 15.4201V8.57992C0.0832658 7.08222 0.0832249 5.83365 0.21656 4.84251C0.35733 3.7961 0.666988 2.8519 1.4261 2.09279C2.18521 1.33368 3.12942 1.02402 4.17583 0.883247C5.16696 0.749912 6.41553 0.749953 7.91323 0.750002H28.0867C29.5844 0.749953 30.833 0.749912 31.8241 0.883247C32.8705 1.02402 33.8148 1.33368 34.5739 2.09279C35.333 2.8519 35.6426 3.7961 35.7834 4.84251C35.9167 5.83366 35.9167 7.08223 35.9166 8.57993V17.042C35.9167 17.7829 35.9167 18.4014 35.8821 18.9089C35.8461 19.4372 35.7685 19.9363 35.5682 20.42C35.5681 20.4201 35.5682 20.4199 35.5682 20.42C35.3378 20.9764 35.0001 21.4819 34.5743 21.9077C34.1485 22.3335 33.643 22.6712 33.0866 22.9015C32.603 23.1018 32.1037 23.1795 31.5756 23.2154C31.068 23.25 30.4496 23.25 29.7087 23.25H29.6666C28.9763 23.25 28.4166 22.6904 28.4166 22C28.4166 21.3096 28.9763 20.75 29.6666 20.75C30.4604 20.75 30.9932 20.7493 31.4056 20.7212C31.807 20.6939 32.002 20.6448 32.13 20.5918C32.3829 20.4871 32.613 20.3335 32.8066 20.1399C33.0001 19.9463 33.1537 19.7165 33.2584 19.4636C33.3114 19.3356 33.3605 19.1403 33.3879 18.739C33.416 18.3265 33.4166 17.7938 33.4166 17V8.66667C33.4166 7.05963 33.414 5.98061 33.3057 5.17583C33.2023 4.40724 33.0237 4.07811 32.8061 3.86055C32.5885 3.643 32.2594 3.46432 31.4908 3.36093C30.686 3.25266 29.607 3.25 28 3.25H7.99998C6.39295 3.25 5.31393 3.25266 4.50914 3.36093Z" fill="currentColor"/>
  <path fill-rule="evenodd" clip-rule="evenodd" d="M18 9.91669C17.4475 9.91669 16.9176 10.1362 16.5269 10.5269C16.1362 10.9176 15.9167 11.4475 15.9167 12C15.9167 12.5526 16.1362 13.0825 16.5269 13.4732C16.9176 13.8639 17.4475 14.0834 18 14.0834C18.5525 14.0834 19.0824 13.8639 19.4731 13.4732C19.8638 13.0825 20.0833 12.5526 20.0833 12C20.0833 11.4475 19.8638 10.9176 19.4731 10.5269C19.0824 10.1362 18.5525 9.91669 18 9.91669ZM14.7591 8.75911C15.6186 7.89957 16.7844 7.41669 18 7.41669C19.2156 7.41669 20.3814 7.89957 21.2409 8.75911C22.1004 9.61866 22.5833 10.7844 22.5833 12C22.5833 13.2156 22.1004 14.3814 21.2409 15.2409C20.3814 16.1005 19.2156 16.5834 18 16.5834C16.7844 16.5834 15.6186 16.1005 14.7591 15.2409C13.8996 14.3814 13.4167 13.2156 13.4167 12C13.4167 10.7844 13.8996 9.61866 14.7591 8.75911ZM28.4167 13.4645C27.8943 13.6492 27.4143 13.9491 27.015 14.3484C26.3118 15.0516 25.9167 16.0055 25.9167 17V20.3334C25.9167 21.0237 25.357 21.5834 24.6667 21.5834C23.6721 21.5834 22.7183 21.9784 22.015 22.6817C21.3118 23.385 20.9167 24.3388 20.9167 25.3334C20.9167 26.0237 20.357 26.5834 19.6667 26.5834C18.9763 26.5834 18.4167 26.0237 18.4167 25.3334C18.4167 23.6758 19.0751 22.086 20.2472 20.9139C21.1202 20.041 22.2249 19.4529 23.4167 19.2096V17C23.4167 15.3424 24.0751 13.7527 25.2472 12.5806C26.4194 11.4085 28.0091 10.75 29.6667 10.75C29.9982 10.75 30.3161 10.8817 30.5505 11.1161C30.785 11.3506 30.9167 11.6685 30.9167 12V21.224C30.9167 23.1213 30.9167 24.6245 30.8138 25.8344C30.7086 27.0721 30.4891 28.117 29.9827 29.0654C29.2446 30.4462 28.1134 31.5777 26.7326 32.3157C25.7842 32.8221 24.7387 33.042 23.5011 33.1472C22.2911 33.25 20.7879 33.25 18.8906 33.25H17.9543C16.4397 33.25 15.2392 33.25 14.2668 33.1836C13.274 33.1157 12.4276 32.9743 11.638 32.6464C10.6775 32.249 9.80476 31.6664 9.06945 30.9317C8.3339 30.1969 7.75031 29.3243 7.35202 28.3639C7.02525 27.5738 6.88388 26.7264 6.81622 25.7331C6.74999 24.7607 6.74999 23.5603 6.75 22.0456L6.75 22C6.75 21.3097 7.30964 20.75 8 20.75C8.69036 20.75 9.25 21.3097 9.25 22C9.25 23.5704 9.25067 24.6857 9.31044 25.5632C9.36942 26.4291 9.48175 26.9718 9.66149 27.4066C9.93401 28.0636 10.3332 28.6604 10.8364 29.1631C11.3397 29.6659 11.9371 30.0647 12.5944 30.3366L12.5963 30.3374C13.0297 30.5175 13.5714 30.6302 14.4373 30.6894C15.3144 30.7493 16.4295 30.75 18 30.75H18.8333C20.8007 30.75 22.1977 30.749 23.2893 30.6562C24.3654 30.5647 25.0297 30.391 25.5546 30.1107C26.4989 29.6058 27.2724 28.8323 27.7773 27.8879C28.0576 27.363 28.2314 26.6988 28.3228 25.6227C28.4156 24.531 28.4167 23.134 28.4167 21.1667V13.4645Z" fill="currentColor"/>
</svg>
