<svg xmlns="http://www.w3.org/2000/svg" width="100%" height="100%" viewBox="0 0 28 32" fill="none">
  <path d="M21.4415 3.30717C19.9956 3.11271 18.0896 3.11047 15.4069 3.11047H12.593C9.91044 3.11047 8.00472 3.11306 6.55907 3.30768C5.14376 3.49822 4.32792 3.85525 3.73198 4.45069C3.13649 5.04567 2.77947 5.86096 2.58909 7.27648C2.39463 8.72235 2.39239 10.6284 2.39239 13.311V18.939C2.39239 19.5217 1.91994 19.9942 1.33715 19.9942C0.754366 19.9942 0.281922 19.5217 0.281922 18.939L0.281922 13.2316C0.2819 10.6461 0.281882 8.59803 0.497461 6.99517C0.719323 5.34559 1.1868 4.01032 2.24029 2.95773C3.29332 1.9056 4.62804 1.43814 6.27748 1.21609C7.88276 0.999972 9.93443 0.999985 12.5259 1L15.4863 1C18.0718 0.999978 20.1199 0.99996 21.7228 1.21554C23.3719 1.43734 24.7069 1.90461 25.7593 2.95748C26.9358 4.13216 27.3817 5.65849 27.5695 7.58054C27.6261 8.16057 27.2018 8.67671 26.6218 8.73337C26.0418 8.79004 25.5257 8.36577 25.469 7.78574C25.2994 6.04965 24.932 5.11377 24.2682 4.45094C23.6732 3.85546 22.857 3.49755 21.4415 3.30717Z" fill="currentColor"/>
  <path d="M7.31681 13.311C7.31681 12.7283 7.78925 12.2558 8.37204 12.2558H9.77901C10.3618 12.2558 10.8342 12.7283 10.8342 13.311C10.8342 13.8938 10.3618 14.3663 9.77901 14.3663H8.37204C7.78925 14.3663 7.31681 13.8938 7.31681 13.311Z" fill="currentColor"/>
  <path d="M12.9447 13.311C12.9447 12.7283 13.4172 12.2558 13.9999 12.2558H19.6279C20.2106 12.2558 20.6831 12.7283 20.6831 13.311C20.6831 13.8938 20.2106 14.3663 19.6279 14.3663H13.9999C13.4172 14.3663 12.9447 13.8938 12.9447 13.311Z" fill="currentColor"/>
  <path d="M26.6627 12.2558C27.2455 12.2558 27.718 12.7283 27.718 13.311V19.0184C27.718 21.6039 27.718 23.652 27.5024 25.2548C27.2806 26.9044 26.8131 28.2397 25.7596 29.2923C24.7066 30.3444 23.3718 30.8119 21.7224 31.0339C20.1171 31.25 18.0655 31.25 15.474 31.25H12.5135C9.92805 31.25 7.87995 31.25 6.27709 31.0345C4.62751 30.8126 3.29224 30.3451 2.23965 29.2916C1.06383 28.1171 0.618156 26.591 0.430434 24.6695C0.373769 24.0894 0.798039 23.5733 1.37807 23.5166C1.95809 23.46 2.47424 23.8842 2.5309 24.4643C2.7005 26.2003 3.06788 27.1362 3.73172 27.7991C4.3267 28.3945 5.14289 28.7524 6.55841 28.9428C8.00427 29.1373 9.91027 29.1395 12.593 29.1395H15.4069C18.0895 29.1395 19.9952 29.1369 21.4408 28.9423C22.8561 28.7518 23.672 28.3947 24.2679 27.7993C24.8634 27.2043 25.2204 26.389 25.4108 24.9735C25.6053 23.5277 25.6075 21.6216 25.6075 18.939V13.311C25.6075 12.7283 26.0799 12.2558 26.6627 12.2558Z" fill="currentColor"/>
  <path d="M7.31681 18.939C7.31681 18.3562 7.78925 17.8837 8.37204 17.8837H15.4069C15.9897 17.8837 16.4622 18.3562 16.4622 18.939C16.4622 19.5217 15.9897 19.9942 15.4069 19.9942H8.37204C7.78925 19.9942 7.31681 19.5217 7.31681 18.939Z" fill="currentColor"/>
  <path d="M21.4415 3.30717L21.4082 3.55494L21.4415 3.30717ZM6.55907 3.30768L6.52571 3.05992L6.55907 3.30768ZM3.73198 4.45069L3.90868 4.62754L3.73198 4.45069ZM2.58909 7.27648L2.34132 7.24316L2.58909 7.27648ZM0.281922 18.939H0.531922H0.281922ZM0.281922 13.2316H0.531922V13.2316L0.281922 13.2316ZM0.497461 6.99517L0.74523 7.02849L0.497461 6.99517ZM2.24029 2.95773L2.41699 3.13458L2.24029 2.95773ZM6.27748 1.21609L6.31084 1.46385L6.27748 1.21609ZM12.5259 1L12.5259 1.25H12.5259V1ZM15.4863 1V1.25H15.4863L15.4863 1ZM21.7228 1.21554L21.7561 0.967771L21.7228 1.21554ZM25.7593 2.95748L25.5825 3.13422L25.5827 3.13439L25.7593 2.95748ZM27.5695 7.58054L27.3206 7.60485L27.5695 7.58054ZM25.469 7.78574L25.7178 7.76143L25.469 7.78574ZM24.2682 4.45094L24.0913 4.62764L24.0915 4.62786L24.2682 4.45094ZM27.718 19.0184H27.468V19.0184L27.718 19.0184ZM27.5024 25.2548L27.7502 25.2882L27.5024 25.2548ZM25.7596 29.2923L25.5829 29.1154L25.7596 29.2923ZM21.7224 31.0339L21.6891 30.7861L21.7224 31.0339ZM15.474 31.25L15.474 31H15.474V31.25ZM12.5135 31.25V31H12.5135L12.5135 31.25ZM6.27709 31.0345L6.24376 31.2822L6.27709 31.0345ZM2.23965 29.2916L2.4165 29.1149L2.41633 29.1148L2.23965 29.2916ZM0.430434 24.6695L0.679249 24.6452L0.430434 24.6695ZM2.5309 24.4643L2.28208 24.4886L2.5309 24.4643ZM3.73172 27.7991L3.90857 27.6224L3.90836 27.6221L3.73172 27.7991ZM6.55841 28.9428L6.52508 29.1906H6.52508L6.55841 28.9428ZM21.4408 28.9423L21.4742 29.1901L21.4408 28.9423ZM24.2679 27.7993L24.4446 27.9762V27.9762L24.2679 27.7993ZM25.4108 24.9735L25.6586 25.0068V25.0068L25.4108 24.9735ZM15.4069 3.36047C18.0968 3.36047 19.9829 3.36324 21.4082 3.55494L21.4748 3.0594C20.0084 2.86217 18.0824 2.86047 15.4069 2.86047V3.36047ZM12.593 3.36047H15.4069V2.86047H12.593V3.36047ZM6.59242 3.55545C8.0175 3.36359 9.90331 3.36047 12.593 3.36047V2.86047C9.91757 2.86047 7.99193 2.86252 6.52571 3.05992L6.59242 3.55545ZM3.90868 4.62754C4.45053 4.08615 5.20497 3.74223 6.59242 3.55545L6.52571 3.05992C5.08256 3.2542 4.20531 3.62436 3.55527 4.27384L3.90868 4.62754ZM2.83686 7.30981C3.0235 5.92213 3.36739 5.16837 3.90868 4.62754L3.55527 4.27384C2.90559 4.92297 2.53545 5.7998 2.34132 7.24316L2.83686 7.30981ZM2.64239 13.311C2.64239 10.6212 2.64516 8.73511 2.83686 7.30981L2.34132 7.24316C2.1441 8.70958 2.14239 10.6355 2.14239 13.311H2.64239ZM2.64239 18.939V13.311H2.14239V18.939H2.64239ZM1.33715 20.2442C2.05802 20.2442 2.64239 19.6598 2.64239 18.939H2.14239C2.14239 19.3837 1.78187 19.7442 1.33715 19.7442V20.2442ZM0.0319223 18.939C0.0319223 19.6598 0.616295 20.2442 1.33715 20.2442V19.7442C0.892437 19.7442 0.531922 19.3837 0.531922 18.939H0.0319223ZM0.249692 6.96184C0.0313635 8.58515 0.0318996 10.6528 0.0319218 13.2316L0.531922 13.2316C0.531899 10.6395 0.5324 8.61092 0.74523 7.02849L0.249692 6.96184ZM2.06359 2.78088C0.955808 3.88771 0.475272 5.28462 0.249692 6.96184L0.74523 7.02849C0.963373 5.40656 1.41779 4.13293 2.41699 3.13458L2.06359 2.78088ZM6.24413 0.96832C4.56703 1.1941 3.1708 1.67461 2.06359 2.78088L2.41699 3.13458C3.41584 2.13658 4.68905 1.68219 6.31084 1.46385L6.24413 0.96832ZM12.5259 0.750001C9.9411 0.749985 7.86987 0.749453 6.24413 0.96832L6.31084 1.46385C7.89566 1.25049 9.92777 1.24998 12.5259 1.25L12.5259 0.750001ZM21.7561 0.967771C20.1328 0.749442 18.0652 0.749978 15.4863 0.75L15.4863 1.25C18.0785 1.24998 20.1071 1.25048 21.6895 1.46331L21.7561 0.967771ZM25.9362 2.78074C24.8295 1.67361 23.4329 1.19329 21.7561 0.967771L21.6895 1.46331C23.311 1.68139 24.5843 2.13562 25.5825 3.13422L25.9362 2.78074ZM27.8183 7.55623C27.6284 5.61221 27.1732 4.01591 25.936 2.78057L25.5827 3.13439C26.6984 4.24842 27.135 5.70477 27.3206 7.60485L27.8183 7.55623ZM26.6461 8.98219C27.3636 8.9121 27.8884 8.27368 27.8183 7.55623L27.3206 7.60485C27.3639 8.04746 27.0401 8.44132 26.5975 8.48456L26.6461 8.98219ZM25.2202 7.81005C25.2903 8.52749 25.9287 9.05228 26.6461 8.98219L26.5975 8.48456C26.1549 8.5278 25.761 8.20404 25.7178 7.76143L25.2202 7.81005ZM24.0915 4.62786C24.6947 5.23008 25.0527 6.09606 25.2202 7.81005L25.7178 7.76143C25.546 6.00324 25.1693 4.99746 24.4448 4.27403L24.0915 4.62786ZM21.4082 3.55494C22.7957 3.74156 23.5504 4.08631 24.0913 4.62764L24.445 4.27424C23.7959 3.6246 22.9183 3.25354 21.4748 3.0594L21.4082 3.55494ZM8.37204 12.0058C7.65118 12.0058 7.06681 12.5902 7.06681 13.311H7.56681C7.56681 12.8663 7.92732 12.5058 8.37204 12.5058V12.0058ZM9.77901 12.0058H8.37204V12.5058H9.77901V12.0058ZM11.0842 13.311C11.0842 12.5902 10.4999 12.0058 9.77901 12.0058V12.5058C10.2237 12.5058 10.5842 12.8663 10.5842 13.311H11.0842ZM9.77901 14.6163C10.4999 14.6163 11.0842 14.0319 11.0842 13.311H10.5842C10.5842 13.7558 10.2237 14.1163 9.77901 14.1163V14.6163ZM8.37204 14.6163H9.77901V14.1163H8.37204V14.6163ZM7.06681 13.311C7.06681 14.0319 7.65118 14.6163 8.37204 14.6163V14.1163C7.92732 14.1163 7.56681 13.7558 7.56681 13.311H7.06681ZM13.9999 12.0058C13.2791 12.0058 12.6947 12.5902 12.6947 13.311H13.1947C13.1947 12.8663 13.5552 12.5058 13.9999 12.5058V12.0058ZM19.6279 12.0058H13.9999V12.5058H19.6279V12.0058ZM20.9331 13.311C20.9331 12.5902 20.3487 12.0058 19.6279 12.0058V12.5058C20.0726 12.5058 20.4331 12.8663 20.4331 13.311H20.9331ZM19.6279 14.6163C20.3487 14.6163 20.9331 14.0319 20.9331 13.311H20.4331C20.4331 13.7558 20.0726 14.1163 19.6279 14.1163V14.6163ZM13.9999 14.6163H19.6279V14.1163H13.9999V14.6163ZM12.6947 13.311C12.6947 14.0319 13.2791 14.6163 13.9999 14.6163V14.1163C13.5552 14.1163 13.1947 13.7558 13.1947 13.311H12.6947ZM27.968 13.311C27.968 12.5902 27.3836 12.0058 26.6627 12.0058V12.5058C27.1075 12.5058 27.468 12.8663 27.468 13.311H27.968ZM27.7502 25.2882C27.9685 23.6649 27.968 21.5972 27.968 19.0184L27.468 19.0184C27.468 21.6105 27.4675 23.6391 27.2547 25.2215L27.7502 25.2882ZM25.9363 29.4691C27.0441 28.3623 27.5246 26.9654 27.7502 25.2882L27.2547 25.2215C27.0365 26.8434 26.5821 28.1171 25.5829 29.1154L25.9363 29.4691ZM21.7558 31.2817C23.4329 31.0559 24.8291 30.5754 25.9363 29.4691L25.5829 29.1154C24.5841 30.1134 23.3108 30.5678 21.6891 30.7861L21.7558 31.2817ZM15.474 31.5C18.0588 31.5 20.13 31.5005 21.7558 31.2817L21.6891 30.7861C20.1042 30.9995 18.0721 31 15.474 31L15.474 31.5ZM6.24376 31.2822C7.86706 31.5006 9.93471 31.5 12.5135 31.5L12.5135 31C9.9214 31 7.89283 30.9995 6.31041 30.7867L6.24376 31.2822ZM2.0628 29.4683C3.16963 30.5761 4.56654 31.0566 6.24376 31.2822L6.31041 30.7867C4.68848 30.5685 3.41485 30.1141 2.4165 29.1149L2.0628 29.4683ZM0.181618 24.6938C0.371486 26.6373 0.826435 28.2333 2.06297 29.4685L2.41633 29.1148C1.30123 28.0008 0.864825 26.5447 0.679249 24.6452L0.181618 24.6938ZM1.35376 23.2678C0.636315 23.3379 0.111529 23.9763 0.181618 24.6938L0.679249 24.6452C0.636009 24.2025 0.959764 23.8087 1.40237 23.7654L1.35376 23.2678ZM2.77971 24.44C2.70963 23.7225 2.0712 23.1977 1.35376 23.2678L1.40237 23.7654C1.84498 23.7222 2.23884 24.046 2.28208 24.4886L2.77971 24.44ZM3.90836 27.6221C3.30522 27.0199 2.94716 26.1539 2.77971 24.44L2.28208 24.4886C2.45385 26.2468 2.83055 27.2525 3.55508 27.976L3.90836 27.6221ZM6.59173 28.6951C5.20415 28.5084 4.44945 28.1637 3.90857 27.6224L3.55487 27.9758C4.20395 28.6254 5.08162 28.9965 6.52508 29.1906L6.59173 28.6951ZM12.593 28.8895C9.9031 28.8895 8.01703 28.8868 6.59173 28.6951L6.52508 29.1906C7.9915 29.3878 9.91745 29.3895 12.593 29.3895V28.8895ZM15.4069 28.8895H12.593V29.3895H15.4069V28.8895ZM21.4075 28.6946C19.9824 28.8864 18.0966 28.8895 15.4069 28.8895V29.3895C18.0823 29.3895 20.008 29.3875 21.4742 29.1901L21.4075 28.6946ZM24.0912 27.6225C23.5494 28.1638 22.7949 28.5078 21.4075 28.6946L21.4742 29.1901C22.9173 28.9958 23.7946 28.6256 24.4446 27.9762L24.0912 27.6225ZM25.163 24.9402C24.9764 26.3279 24.6325 27.0816 24.0912 27.6225L24.4446 27.9762C25.0943 27.327 25.4644 26.4502 25.6586 25.0068L25.163 24.9402ZM25.3575 18.939C25.3575 21.6288 25.3547 23.5149 25.163 24.9402L25.6586 25.0068C25.8558 23.5404 25.8575 21.6145 25.8575 18.939H25.3575ZM25.3575 13.311V18.939H25.8575V13.311H25.3575ZM26.6627 12.0058C25.9419 12.0058 25.3575 12.5902 25.3575 13.311H25.8575C25.8575 12.8663 26.218 12.5058 26.6627 12.5058V12.0058ZM8.37204 17.6337C7.65118 17.6337 7.06681 18.2181 7.06681 18.939H7.56681C7.56681 18.4942 7.92732 18.1337 8.37204 18.1337V17.6337ZM15.4069 17.6337H8.37204V18.1337H15.4069V17.6337ZM16.7122 18.939C16.7122 18.2181 16.1278 17.6337 15.4069 17.6337V18.1337C15.8516 18.1337 16.2122 18.4942 16.2122 18.939H16.7122ZM15.4069 20.2442C16.1278 20.2442 16.7122 19.6598 16.7122 18.939H16.2122C16.2122 19.3837 15.8516 19.7442 15.4069 19.7442V20.2442ZM8.37204 20.2442H15.4069V19.7442H8.37204V20.2442ZM7.06681 18.939C7.06681 19.6598 7.65118 20.2442 8.37204 20.2442V19.7442C7.92732 19.7442 7.56681 19.3837 7.56681 18.939H7.06681ZM0.0319218 13.2316L0.0319223 18.939H0.531922L0.531922 13.2316H0.0319218ZM15.4863 0.75L12.5259 0.750001V1.25L15.4863 1.25V0.75ZM27.968 19.0184V13.311H27.468V19.0184H27.968ZM12.5135 31.5H15.474V31H12.5135V31.5Z" fill="currentColor"/>
</svg>
