<svg xmlns="http://www.w3.org/2000/svg" width="100%" height="100%" viewBox="0 0 208 20" fill="none">
<path fill-rule="evenodd" clip-rule="evenodd" d="M12.3943 0.00366211L16.3515 8.04786C12.6558 9.06599 10.9882 11.6727 9.74102 13.622C9.54441 13.9294 9.35825 14.2203 9.17625 14.4862C8.36241 15.628 7.35444 16.976 6.37634 18.1105C4.338 20.4678 0 18.8177 0 18.8177C0 18.8177 0.00746644 18.7956 0.0298657 18.7661C0.0298657 18.7661 5.41317 7.81213 6.53313 5.54326L6.5854 5.43276C7.19855 4.18115 7.69196 3.17895 7.95887 2.63681L7.95891 2.63673L8.00402 2.5451C9.17625 0.158358 10.9383 0.00366211 12.3943 0.00366211ZM15.2688 18.1105C13.9472 16.5856 12.5734 14.6556 11.7073 13.3959C13.3872 11.4512 15.6944 10.6998 17.5162 10.4199L21.6451 18.8176C21.6451 18.8176 17.3071 20.4677 15.2688 18.1105ZM176.619 5.52852C177.179 4.97604 177.843 4.54878 178.605 4.24676C179.366 3.94473 180.21 3.79003 181.121 3.79003C182.091 3.79003 182.995 3.98156 183.824 4.37199C183.827 4.37567 183.831 4.37751 183.835 4.37935C183.837 4.38037 183.839 4.3814 183.841 4.38274C183.843 4.38381 183.844 4.38508 183.846 4.38672C185.429 5.13073 187.303 4.9613 188.595 3.79003L188.983 3.43644C188.05 2.31674 186.892 1.46223 185.511 0.880274C184.145 0.290955 182.599 0.00366211 180.904 0.00366211C179.396 0.00366211 177.985 0.246756 176.693 0.732944C175.394 1.21913 174.267 1.91895 173.303 2.81766C172.34 3.72374 171.594 4.77714 171.064 5.99261C170.533 7.20808 170.265 8.54141 170.265 9.99998C170.265 11.4585 170.533 12.7919 171.064 14.0073C171.594 15.2228 172.34 16.2836 173.289 17.1823C174.237 18.081 175.364 18.7808 176.663 19.267C177.963 19.7532 179.366 19.9963 180.874 19.9963C182.592 19.9963 184.137 19.7016 185.519 19.1123C186.9 18.523 188.057 17.6685 188.99 16.5414L188.595 16.1805C187.303 15.0092 185.429 14.8398 183.854 15.5985C183.846 15.6059 183.839 15.6059 183.831 15.6132C183.002 16.011 182.099 16.2099 181.128 16.2099C180.21 16.2099 179.374 16.0552 178.612 15.7532C177.843 15.4512 177.186 15.0239 176.626 14.4714C176.066 13.9189 175.633 13.2633 175.327 12.5119C175.021 11.7606 174.864 10.9208 174.864 9.99998C174.864 9.07917 175.021 8.23939 175.327 7.48801C175.626 6.73663 176.059 6.08101 176.619 5.52852ZM31.9488 4.24676C31.1872 4.54878 30.5227 4.97604 29.9627 5.52852C29.4027 6.08101 28.9697 6.73663 28.6636 7.48801C28.3574 8.23939 28.2006 9.07917 28.2006 9.99998C28.2006 10.9208 28.3574 11.7606 28.6636 12.5119C28.9697 13.2633 29.4027 13.9189 29.9627 14.4714C30.5227 15.0239 31.1798 15.4512 31.9488 15.7532C32.7104 16.0552 33.5466 16.2099 34.465 16.2099C35.4356 16.2099 36.3391 16.011 37.1678 15.6132L37.1702 15.6111L37.172 15.6098C37.1743 15.6082 37.1767 15.607 37.179 15.6059C37.1828 15.604 37.1865 15.6022 37.1902 15.5985C38.7657 14.8398 40.6397 15.0092 41.9314 16.1805L42.3271 16.5414C41.3938 17.6685 40.2365 18.523 38.8553 19.1123C37.474 19.7016 35.9284 19.9963 34.2111 19.9963C32.7029 19.9963 31.2992 19.7532 30.0001 19.267C28.7009 18.7808 27.5735 18.081 26.6252 17.1823C25.677 16.2836 24.9303 15.2228 24.4002 14.0073C23.8701 12.7919 23.6013 11.4585 23.6013 9.99998C23.6013 8.54141 23.8701 7.20808 24.4002 5.99261C24.9303 4.77714 25.677 3.72374 26.6402 2.81766C27.6033 1.91895 28.7308 1.21913 30.0299 0.732944C31.3216 0.246756 32.7328 0.00366211 34.241 0.00366211C35.9433 0.00366211 37.4814 0.290955 38.8553 0.880274C40.2365 1.46223 41.3938 2.31674 42.3271 3.43644L41.9389 3.79003C40.6472 4.9613 38.7731 5.13073 37.1902 4.38672C37.1865 4.38304 37.1828 4.38119 37.179 4.37935C37.1753 4.37751 37.1716 4.37567 37.1678 4.37199C36.3391 3.98156 35.4356 3.79003 34.465 3.79003C33.5541 3.79003 32.7104 3.94473 31.9488 4.24676ZM66.2273 0.335144H65.0103L57.8201 12.3351L50.4806 0.335144H49.271C47.8673 0.335144 46.7324 1.45485 46.7324 2.83975V19.6722H46.8743C49.1291 19.6722 50.9584 17.8674 50.9584 15.6427V8.26885L56.2297 16.7992C56.5359 17.3002 57.0884 17.6022 57.6782 17.6022C58.3353 17.6022 58.9475 17.2633 59.291 16.7035L64.5175 8.14362L64.5473 15.6722C64.5548 17.8895 66.3766 19.6795 68.624 19.6795H68.7883V2.86185C68.7883 1.46958 67.6384 0.335144 66.2273 0.335144ZM74.8362 19.6722V3.36277C74.8362 1.69058 76.21 0.335144 77.9049 0.335144H79.3982V16.7403C79.3982 18.3609 78.0691 19.6722 76.4265 19.6722H74.8362ZM118.672 3.36277V19.6722H120.262C121.905 19.6722 123.234 18.3609 123.234 16.7403V0.335144H121.74C120.045 0.335144 118.672 1.69058 118.672 3.36277ZM84.8411 15.2449C85.3713 14.7514 86.0134 14.5009 86.76 14.5009C87.5216 14.5009 88.1712 14.7514 88.6938 15.2449C89.2165 15.7385 89.4778 16.3941 89.4778 17.2044C89.4778 17.9779 89.2165 18.6188 88.6938 19.1271C88.1712 19.6354 87.5216 19.8858 86.76 19.8858C86.0134 19.8858 85.3713 19.6354 84.8411 19.1271C84.311 18.6188 84.0422 17.9779 84.0422 17.2044C84.0422 16.3941 84.311 15.7385 84.8411 15.2449ZM108.682 1.53588C107.061 0.732934 105.18 0.335144 103.052 0.335144H94.1519V19.6722H103.052C105.18 19.6722 107.054 19.2744 108.682 18.4714C110.302 17.6685 111.571 16.5488 112.489 15.1049C113.4 13.6611 113.863 11.9595 113.863 10.0073C113.863 8.05522 113.408 6.36093 112.489 4.90973C111.571 3.45853 110.302 2.33883 108.682 1.53588ZM108.472 13.1897C107.942 14.1031 107.196 14.8029 106.233 15.2891C105.269 15.7753 104.134 16.0184 102.828 16.0184H98.7139V3.98155H102.828C104.134 3.98155 105.269 4.22465 106.233 4.71083C107.196 5.19702 107.942 5.89684 108.472 6.79555C109.003 7.69426 109.271 8.7624 109.271 9.99997C109.264 11.2154 109.003 12.2836 108.472 13.1897ZM145.215 11.0681C144.52 12.1068 143.542 12.895 142.273 13.4401C142.27 13.4427 142.267 13.4443 142.263 13.4457L142.258 13.4475C142.253 13.4493 142.247 13.4512 142.243 13.4549L146.611 19.6722H143.893C142.542 19.6722 141.28 19.0239 140.511 17.9263L137.935 14.2505C137.901 14.2505 137.87 14.2523 137.838 14.2541C137.806 14.256 137.775 14.2578 137.741 14.2578H133.821V15.1713C133.821 17.6538 131.783 19.6722 129.259 19.6722V0.342529H137.741C139.496 0.342529 141.004 0.622456 142.273 1.18231C143.542 1.74216 144.52 2.55247 145.215 3.59852C145.909 4.64456 146.253 5.88949 146.253 7.32595C146.253 8.77715 145.909 10.0295 145.215 11.0681ZM141.683 7.32595C141.683 6.25781 141.332 5.43277 140.623 4.85082C139.914 4.26886 138.868 3.98157 137.487 3.98157H133.821V10.6998H137.487C138.868 10.6998 139.914 10.4051 140.623 9.81583C141.325 9.22651 141.683 8.3941 141.683 7.32595ZM162.791 16.0773H155.765V11.6059H164.866V8.09942H155.765V3.92262H162.425C164.433 3.92262 166.061 2.31673 166.061 0.335144H151.255V19.6722H166.427C166.427 17.6832 164.799 16.0773 162.791 16.0773ZM190.924 3.98155V0.335144H208V3.98155H201.728V15.2007C201.728 17.6685 199.697 19.6722 197.196 19.6722V3.98155H190.924Z" fill="currentColor"/>
</svg>
