<svg xmlns="http://www.w3.org/2000/svg" width="100%" height="100%" viewBox="0 0 24 11" fill="none">
  <path d="M23.0546 1.52752C23.1879 1.81537 23.1969 2.97239 17.5843 5.60677L12.0814 8.18963C10.1661 9.08904 7.38726 10.2718 6.16191 10.5989C5.30395 10.8274 4.48519 10.2449 4.48519 10.2449C4.48519 10.2449 2.01433 8.03282 1.35798 7.53552C0.701625 7.03821 0.758748 6.78508 1.59879 6.51626C2.12186 6.34937 5.10458 7.06845 6.37585 7.38991C7.53523 6.69562 8.70816 6.0242 9.89395 5.37604C8.33035 4.21902 5.40475 2.05843 4.47174 1.39983C3.57682 0.766998 4.48295 0.539625 4.48295 0.539625C4.89513 0.42874 5.78445 0.284252 6.23248 0.378337C9.28016 1.01565 14.3675 2.69798 14.7572 2.82679C15.8383 2.26027 16.9294 1.71322 18.0301 1.1859C20.3542 0.0949616 22.8766 1.14446 23.0546 1.52752Z" fill="currentColor"/>
</svg>
