<svg xmlns="http://www.w3.org/2000/svg" width="100%" height="100%" viewBox="0 0 30 34" fill="none">
  <path fill-rule="evenodd" clip-rule="evenodd" d="M16.17 0.211327L27.8367 4.58633C28.4282 4.80814 28.9445 5.1935 29.3255 5.6975C29.7064 6.20149 29.9363 6.80337 29.9883 7.43299L30 7.70799V16.6463C29.9999 19.347 29.2707 21.9976 27.8893 24.3183C26.508 26.639 24.5257 28.5437 22.1517 29.8313L21.7083 30.063L16.1183 32.858C15.8105 33.0117 15.4743 33.1002 15.1308 33.118C14.7872 33.1357 14.4437 33.0824 14.1217 32.9613L13.8817 32.858L8.29167 30.063C5.87602 28.8551 3.83129 27.0175 2.37334 24.744C0.915387 22.4706 0.0983006 19.8456 0.00833321 17.1463L0 16.6463V7.70799C9.69175e-06 7.07654 0.179376 6.45808 0.517221 5.92461C0.855067 5.39114 1.33749 4.96461 1.90833 4.69466L2.16333 4.58633L13.83 0.211327C14.4877 -0.0347526 15.2063 -0.0668334 15.8833 0.119661L16.17 0.211327ZM26.9322 7.50645C26.9645 7.54915 26.9859 7.59888 26.9949 7.65136L27 7.7716V16.6463V16.6463C26.9999 18.8069 26.4166 20.9273 25.3115 22.7838C24.2101 24.6341 22.6312 26.1539 20.7405 27.1838L20.3428 27.3917L15 30.0631L9.63333 27.3797L9.63331 27.3797C7.7008 26.4134 6.06503 24.9433 4.89867 23.1245C3.73656 21.3124 3.08341 19.2211 3.00748 17.07L3 16.6213V7.70804V7.70799C3.00001 7.64486 3.01795 7.58303 3.05172 7.5297C3.08034 7.4845 3.11935 7.44698 3.16532 7.42015L3.27705 7.37268L14.8813 3.0211L14.8818 3.0209C14.9382 2.9999 14.9991 2.99463 15.058 3.00539L15.1858 3.04627L26.7833 7.39531L26.7833 7.39534C26.8425 7.41752 26.8941 7.45605 26.9322 7.50645ZM13.6177 22.6245C13.7232 22.6245 13.8283 22.6154 13.9318 22.5974C14.0645 22.5744 14.1945 22.5367 14.3195 22.4849C14.542 22.3927 14.7441 22.2576 14.9144 22.0873L23.6377 13.3623C23.7969 13.2085 23.9238 13.0246 24.0112 12.8213C24.0985 12.6179 24.1445 12.3992 24.1464 12.1779C24.1484 11.9566 24.1062 11.7372 24.0224 11.5323C23.9386 11.3275 23.8148 11.1414 23.6583 10.9849C23.5019 10.8285 23.3158 10.7047 23.1109 10.6209C22.9061 10.5371 22.6866 10.4949 22.4654 10.4969C22.2441 10.4988 22.0254 10.5448 21.822 10.6321C21.6187 10.7194 21.4348 10.8464 21.281 11.0056L15.739 16.5476L13.6177 18.6689L11.4964 16.5476L10.671 15.7223C10.3583 15.4098 9.93422 15.2343 9.4921 15.2344C9.04998 15.2346 8.62603 15.4104 8.31352 15.7231C8.00101 16.0358 7.82553 16.4599 7.82568 16.902C7.82584 17.3441 8.00162 17.7681 8.31435 18.0806L12.321 22.0873C12.4913 22.2576 12.6934 22.3927 12.9159 22.4849C13.0409 22.5367 13.1709 22.5744 13.3035 22.5974C13.407 22.6154 13.5121 22.6245 13.6177 22.6245Z" fill="currentColor"/>
</svg>
