<svg xmlns="http://www.w3.org/2000/svg" width="10 0%" height="100%" viewBox="0 0 24 24" fill="none">
  <path d="M22.4626 5.58334L18.4167 1.5374C18.247 1.36642 18.0451 1.23086 17.8226 1.13861C17.6002 1.04635 17.3616 0.99924 17.1207 1.00001H2.83333C2.3471 1.00001 1.88079 1.19316 1.53697 1.53698C1.19315 1.8808 1 2.34711 1 2.83334V21.1667C1 21.6529 1.19315 22.1192 1.53697 22.463C1.88079 22.8068 2.3471 23 2.83333 23H21.1667C21.6529 23 22.1192 22.8068 22.463 22.463C22.8068 22.1192 23 21.6529 23 21.1667V6.87928C23.0008 6.63843 22.9536 6.39984 22.8614 6.17736C22.7691 5.95488 22.6336 5.75296 22.4626 5.58334ZM16.5833 21.1667H7.41666V14.75H16.5833V21.1667ZM21.1667 21.1667H18.4167V14.75C18.4167 14.2638 18.2235 13.7975 17.8797 13.4536C17.5359 13.1098 17.0696 12.9167 16.5833 12.9167H7.41666C6.93043 12.9167 6.46412 13.1098 6.1203 13.4536C5.77649 13.7975 5.58333 14.2638 5.58333 14.75V21.1667H2.83333V2.83334H17.1207L21.1667 6.87928V21.1667ZM15.6667 5.58334C15.6667 5.82646 15.5701 6.05961 15.3982 6.23152C15.2263 6.40343 14.9931 6.50001 14.75 6.50001H8.33333C8.09022 6.50001 7.85706 6.40343 7.68515 6.23152C7.51324 6.05961 7.41666 5.82646 7.41666 5.58334C7.41666 5.34023 7.51324 5.10707 7.68515 4.93516C7.85706 4.76325 8.09022 4.66667 8.33333 4.66667H14.75C14.9931 4.66667 15.2263 4.76325 15.3982 4.93516C15.5701 5.10707 15.6667 5.34023 15.6667 5.58334Z" fill="currentColor"/>
</svg>
