<svg xmlns="http://www.w3.org/2000/svg" width="100%" height="100%" viewBox="0 0 11 12" fill="none">
  <path fill-rule="evenodd" clip-rule="evenodd" d="M5.1907 7.4006L1.69062 10.9007C1.5049 11.0864 1.253 11.1908 0.990342 11.1908C0.727686 11.1908 0.475788 11.0864 0.290063 10.9007C0.104337 10.715 -3.8147e-06 10.4631 -3.8147e-06 10.2004C-3.8147e-06 9.93775 0.104337 9.68585 0.290063 9.50012L3.79146 6.00004L0.290722 2.49996C0.198804 2.408 0.125898 2.29883 0.076169 2.1787C0.0264397 2.05856 0.000859261 1.9298 0.000889778 1.79978C0.000920296 1.66975 0.0265608 1.54101 0.0763464 1.4209C0.126133 1.30078 0.19909 1.19165 0.291052 1.09973C0.383015 1.00781 0.492181 0.934907 0.612319 0.885177C0.732456 0.835448 0.861213 0.809868 0.991236 0.809899C1.12126 0.809929 1.25 0.835569 1.37012 0.885356C1.49023 0.935142 1.59936 1.0081 1.69128 1.10006L5.1907 4.60014L8.69079 1.10006C8.78207 1.00546 8.89128 0.929988 9.01204 0.878045C9.1328 0.826103 9.2627 0.798731 9.39415 0.797527C9.52561 0.796323 9.65599 0.821311 9.77768 0.871033C9.89937 0.920755 10.0099 0.994216 10.1029 1.08713C10.1959 1.18004 10.2695 1.29054 10.3193 1.41219C10.3692 1.53384 10.3943 1.66419 10.3932 1.79565C10.3921 1.9271 10.3649 2.05703 10.3131 2.17784C10.2612 2.29865 10.1859 2.40793 10.0913 2.4993L6.58994 6.00004L10.0907 9.50078C10.1852 9.59216 10.2606 9.70144 10.3124 9.82225C10.3642 9.94306 10.3915 10.073 10.3926 10.2044C10.3936 10.3359 10.3685 10.4662 10.3187 10.5879C10.2689 10.7095 10.1953 10.82 10.1023 10.913C10.0093 11.0059 9.89871 11.0793 9.77702 11.1291C9.65533 11.1788 9.52495 11.2038 9.39349 11.2026C9.26204 11.2014 9.13214 11.174 9.01138 11.122C8.89062 11.0701 8.78141 10.9946 8.69013 10.9L5.1907 7.4006Z" fill="currentColor"/>
</svg>
