<svg width="100%" height="100%" viewBox="0 0 80 80" fill="none" xmlns="http://www.w3.org/2000/svg">
<path d="M16.6301 64.7972C21.292 64.7972 25.0911 60.9981 25.0911 56.336C25.0911 51.6782 21.292 47.8791 16.6301 47.8791C11.9725 47.8791 8.16919 51.6782 8.16919 56.336C8.16919 60.9981 11.9725 64.7972 16.6301 64.7972Z" stroke="currentColor" stroke-width="3" stroke-miterlimit="10" stroke-linecap="round" stroke-linejoin="round"/>
<path d="M10.9969 62.6506C6.54319 63.3272 3.09985 67.1957 3.09985 71.8316V77.9509H30.1608V71.8316C30.1608 67.1957 26.7219 63.3272 22.2637 62.6506" stroke="currentColor" stroke-width="3" stroke-miterlimit="10" stroke-linecap="round" stroke-linejoin="round"/>
<path d="M64.837 64.7972C69.4989 64.7972 73.2978 60.9981 73.2978 56.336C73.2978 51.6782 69.4989 47.8791 64.837 47.8791C60.1793 47.8791 56.3804 51.6782 56.3804 56.336C56.3804 60.9981 60.1793 64.7972 64.837 64.7972Z" stroke="currentColor" stroke-width="3" stroke-miterlimit="10" stroke-linecap="round" stroke-linejoin="round"/>
<path d="M59.2041 62.6508C54.7502 63.3273 51.3069 67.1959 51.3069 71.8318V77.9511H78.3723V71.8318C78.3723 67.1959 74.9289 63.3273 70.4709 62.6508" stroke="currentColor" stroke-width="3" stroke-miterlimit="10" stroke-linecap="round" stroke-linejoin="round"/>
<path d="M65.1404 19.009H42.9407C38.6995 19.009 35.23 22.4785 35.23 26.7198C35.23 30.9614 38.6995 34.4307 42.9407 34.4307H56.558L65.7041 40.2854L65.8169 34.4004C69.746 34.0577 72.8511 30.7357 72.8511 26.7198C72.8511 22.4785 69.3817 19.009 65.1404 19.009Z" stroke="currentColor" stroke-width="3" stroke-miterlimit="10" stroke-linecap="round" stroke-linejoin="round"/>
<path d="M43.2878 2.67666H53.7263C60.3397 2.67666 65.7475 8.08463 65.7475 14.6984C65.7475 16.2162 65.4614 17.6691 64.9454 19.009M35.2301 26.7201H29.7182L18.2346 35.8534L18.0568 26.6723C11.9333 26.139 7.08496 20.9564 7.08496 14.6984C7.08496 8.08463 12.4972 2.67666 19.1106 2.67666H29.5491" stroke="currentColor" stroke-width="3" stroke-miterlimit="10" stroke-linecap="round" stroke-linejoin="round"/>
<path d="M45.3611 26.7158V26.7202" stroke="currentColor" stroke-width="3" stroke-miterlimit="10" stroke-linecap="round" stroke-linejoin="round"/>
<path d="M54.043 26.7158V26.7202" stroke="currentColor" stroke-width="3" stroke-miterlimit="10" stroke-linecap="round" stroke-linejoin="round"/>
<path d="M62.7205 26.7158V26.7202" stroke="currentColor" stroke-width="3" stroke-miterlimit="10" stroke-linecap="round" stroke-linejoin="round"/>
<path d="M36.4276 2.67664H36.4187" stroke="currentColor" stroke-width="3" stroke-miterlimit="10" stroke-linecap="round" stroke-linejoin="round"/>
</svg>
