<svg width="100%" height="100%" viewBox="0 0 13 10" fill="none" xmlns="http://www.w3.org/2000/svg">
<path d="M4.40667 7.45834L11.0317 0.24999C11.1983 0.0833232 11.3928 -1.01825e-05 11.615 -1.01825e-05C11.8372 -1.01825e-05 12.0317 0.0833232 12.1983 0.24999C12.365 0.416656 12.4483 0.614573 12.4483 0.84374C12.4483 1.07291 12.365 1.27082 12.1983 1.43749L4.99 9.25001C4.82333 9.41668 4.62889 9.50001 4.40667 9.50001C4.18444 9.50001 3.99 9.41668 3.82333 9.25001L0.24 5.66668C0.0733333 5.50001 -0.00652778 5.30209 0.000416667 5.07293C0.00736111 4.84376 0.0941667 4.64584 0.260833 4.47918C0.4275 4.31251 0.625417 4.22918 0.854583 4.22918C1.08375 4.22918 1.28167 4.31251 1.44833 4.47918L4.40667 7.45834Z" fill="currentColor"/>
</svg>
