<svg width="208" height="20" viewBox="0 0 208 20" fill="none" xmlns="http://www.w3.org/2000/svg">
<path fill-rule="evenodd" clip-rule="evenodd" d="M12.394 0.00400598L16.352 8.04801C12.656 9.06601 10.988 11.673 9.741 13.622C9.544 13.929 9.358 14.22 9.176 14.486C8.362 15.628 7.354 16.976 6.376 18.11C4.338 20.468 0 18.818 0 18.818C0 18.818 0.007 18.796 0.03 18.766C0.03 18.766 5.413 7.81201 6.533 5.54301L6.585 5.43301C7.2 4.18001 7.692 3.17901 7.96 2.63701L8.005 2.54501C9.176 0.158006 10.938 0.00400598 12.394 0.00400598ZM15.27 18.11C13.948 16.586 12.574 14.656 11.708 13.396C13.388 11.451 15.695 10.7 17.518 10.42L21.646 18.818C21.646 18.818 17.308 20.468 15.27 18.11ZM176.619 5.53001C177.187 4.97264 177.863 4.5365 178.605 4.24801C179.407 3.93756 180.261 3.78247 181.121 3.79101C182.058 3.78231 182.986 3.98393 183.835 4.38101C183.837 4.38189 183.839 4.38289 183.841 4.38401C183.843 4.38401 183.844 4.38601 183.846 4.38801C185.429 5.13201 187.303 4.96201 188.595 3.79101L188.983 3.43701C188.05 2.31593 186.858 1.43841 185.511 0.880006C184.145 0.291006 182.599 0.00400598 180.904 0.00400598C179.396 0.00400598 177.985 0.247006 176.693 0.733006C175.436 1.1967 174.284 1.90541 173.303 2.81801C172.347 3.71182 171.585 4.7925 171.064 5.99301C170.533 7.20801 170.265 8.54101 170.265 10C170.265 11.459 170.533 12.792 171.064 14.007C171.583 15.2051 172.34 16.2852 173.289 17.182C174.261 18.0977 175.409 18.8069 176.663 19.267C177.963 19.753 179.366 19.997 180.874 19.997C182.592 19.997 184.137 19.702 185.519 19.112C186.867 18.5487 188.058 17.6668 188.99 16.542L188.595 16.18C187.303 15.01 185.429 14.84 183.854 15.598C183.846 15.606 183.839 15.606 183.831 15.613C182.987 16.0141 182.063 16.2182 181.128 16.21C180.268 16.2191 179.414 16.064 178.612 15.753C177.869 15.4663 177.193 15.0299 176.626 14.471C176.063 13.9134 175.621 13.2463 175.327 12.511C175.021 11.761 174.864 10.921 174.864 10C174.864 9.08001 175.021 8.24001 175.327 7.48801C175.616 6.7517 176.056 6.08406 176.619 5.52801V5.53001ZM31.949 4.24701C31.2071 4.53559 30.5315 4.97173 29.963 5.52901C29.4003 6.08623 28.9578 6.75297 28.663 7.48801C28.357 8.23901 28.201 9.07901 28.201 10C28.201 10.92 28.357 11.76 28.664 12.512C28.9584 13.2473 29.4005 13.9144 29.963 14.472C30.523 15.024 31.18 15.452 31.949 15.753C32.71 16.055 33.547 16.21 34.465 16.21C35.435 16.21 36.339 16.011 37.168 15.613L37.17 15.611L37.172 15.61C37.1742 15.6085 37.1766 15.6071 37.179 15.606C37.183 15.604 37.187 15.602 37.19 15.598C38.766 14.84 40.64 15.009 41.931 16.18L42.327 16.541C41.3946 17.6662 40.2032 18.5484 38.855 19.112C37.474 19.702 35.928 19.996 34.211 19.996C32.703 19.996 31.299 19.753 30.001 19.267C28.7464 18.8071 27.598 18.0978 26.625 17.182C25.6763 16.285 24.9194 15.2049 24.4 14.007C23.87 12.792 23.601 11.459 23.601 10C23.601 8.54101 23.871 7.20801 24.401 5.99301C24.9223 4.79242 25.6848 3.71175 26.641 2.81801C27.6213 1.90529 28.7733 1.19655 30.03 0.733006C31.322 0.247006 32.733 0.00300598 34.241 0.00300598C35.943 0.00300598 37.481 0.291006 38.855 0.880006C40.2023 1.43812 41.3938 2.31529 42.327 3.43601L41.939 3.79001C40.647 4.96101 38.773 5.13001 37.19 4.38701C37.1868 4.3837 37.1831 4.38099 37.179 4.37901C36.3298 3.98183 35.4024 3.78021 34.465 3.78901C33.555 3.79001 32.71 3.94501 31.949 4.24701ZM66.227 0.335006H65.01L57.82 12.335L50.48 0.335006H49.271C47.867 0.335006 46.732 1.45501 46.732 2.84001V19.672H46.874C49.129 19.672 50.958 17.867 50.958 15.642V8.27001L56.23 16.8C56.536 17.301 57.088 17.603 57.678 17.603C58.335 17.603 58.948 17.264 59.291 16.704L64.518 8.14401L64.548 15.674C64.555 17.891 66.377 19.681 68.624 19.681H68.788V2.86101C68.788 1.46901 67.638 0.334006 66.228 0.334006L66.227 0.335006ZM74.837 19.672V3.36201C74.837 1.69101 76.21 0.335006 77.905 0.335006H79.398V16.74C79.398 18.36 78.069 19.672 76.427 19.672H74.837ZM118.672 3.36201V19.672H120.262C121.905 19.672 123.234 18.361 123.234 16.74V0.335006H121.74C120.045 0.335006 118.672 1.69001 118.672 3.36201ZM84.842 15.245C85.3595 14.7557 86.048 14.4887 86.76 14.501C87.522 14.501 88.171 14.751 88.694 15.245C89.216 15.739 89.478 16.395 89.478 17.205C89.478 17.978 89.217 18.619 88.694 19.127C88.171 19.635 87.522 19.886 86.76 19.886C86.013 19.886 85.371 19.636 84.841 19.127C84.311 18.619 84.042 17.977 84.042 17.204C84.042 16.394 84.311 15.739 84.842 15.245ZM108.682 1.53501C107.061 0.733006 105.18 0.335006 103.052 0.335006H94.152V19.672H103.052C105.18 19.672 107.054 19.274 108.682 18.472C110.302 17.669 111.571 16.549 112.489 15.105C113.4 13.661 113.863 11.959 113.863 10.007C113.863 8.05501 113.408 6.36101 112.489 4.91001C111.571 3.45901 110.302 2.33901 108.682 1.53601V1.53501ZM108.472 13.19C107.95 14.0963 107.171 14.8272 106.233 15.29C105.269 15.775 104.134 16.018 102.828 16.018H98.714V3.98201H102.828C104.134 3.98201 105.269 4.22501 106.233 4.71101C107.167 5.17261 107.945 5.8974 108.472 6.79601C109.003 7.69401 109.271 8.76201 109.271 10C109.264 11.215 109.003 12.284 108.472 13.19ZM145.215 11.068C144.52 12.107 143.542 12.895 142.273 13.44C142.27 13.4427 142.267 13.4447 142.263 13.446L142.258 13.448C142.253 13.449 142.247 13.451 142.243 13.455L146.611 19.672H143.893C143.23 19.6744 142.577 19.5169 141.988 19.2129C141.4 18.909 140.893 18.4675 140.511 17.926L137.935 14.251C137.901 14.251 137.87 14.252 137.838 14.254C137.806 14.2563 137.773 14.2577 137.741 14.258H133.821V15.171C133.821 17.654 131.783 19.672 129.259 19.672V0.342006H137.741C139.496 0.342006 141.004 0.622006 142.273 1.18201C143.542 1.74201 144.52 2.55201 145.215 3.59901C145.909 4.64501 146.253 5.88901 146.253 7.32601C146.253 8.77701 145.909 10.03 145.215 11.068ZM141.683 7.32601C141.683 6.25801 141.332 5.43301 140.623 4.85101C139.914 4.26901 138.868 3.98101 137.487 3.98101H133.821V10.7H137.487C138.868 10.7 139.914 10.405 140.623 9.81601C141.325 9.22601 141.683 8.39401 141.683 7.32601ZM162.791 16.077H155.765V11.606H164.866V8.09901H155.765V3.92301H162.425C164.433 3.92301 166.061 2.31701 166.061 0.335006H151.255V19.672H166.427C166.427 17.683 164.799 16.077 162.791 16.077ZM190.924 3.98201V0.335006H208V3.98201H201.728V15.2C201.728 17.668 199.697 19.671 197.196 19.671V3.98201H190.924Z" fill="currentColor"/>
</svg>
