<svg width="100%" height="100%" viewBox="0 0 80 80" fill="none" xmlns="http://www.w3.org/2000/svg">
<path d="M22.7103 49.6983C22.0929 49.093 21.1019 49.1023 20.4965 49.7197C19.8912 50.3369 19.9008 51.3281 20.5179 51.9334L24.6473 55.9836L16.6756 54.5247C16.3473 54.4647 16.0084 54.5112 15.7084 54.6574C15.4084 54.8036 15.1629 55.0419 15.0079 55.3374C14.8528 55.633 14.7962 55.9703 14.8464 56.3003C14.8966 56.6302 15.0509 56.9355 15.2869 57.1716L22.8436 64.7283C23.1492 65.0339 23.55 65.1867 23.9506 65.1867C24.3512 65.1867 24.7519 65.0339 25.0576 64.7283C25.669 64.1169 25.669 63.1256 25.0576 62.5144L21.0517 58.5086L28.6211 59.8939C29.4008 60.0361 30.1304 59.6964 30.4798 59.0295C30.8356 58.3506 30.6895 57.5361 30.0969 56.9434L22.7103 49.6983ZM45.0862 36.9861L46.7833 35.2891C47.3947 34.6777 47.3947 33.6866 46.7833 33.0752C46.1719 32.4639 45.1809 32.4638 44.5693 33.0752L42.8722 34.7722L41.3995 33.2997L43.3386 31.3606C43.95 30.7492 43.95 29.758 43.3386 29.1467C42.727 28.5353 41.7361 28.5353 41.1247 29.1467L38.0786 32.1928C37.9332 32.3382 37.8178 32.5108 37.7392 32.7007C37.6605 32.8907 37.62 33.0943 37.62 33.2999C37.62 33.5055 37.6605 33.7091 37.7392 33.899C37.8179 34.089 37.9333 34.2615 38.0787 34.4069L45.5942 41.9223C45.7394 42.0679 45.912 42.1833 46.102 42.262C46.292 42.3407 46.4956 42.381 46.7012 42.3808C46.9069 42.381 47.1105 42.3407 47.3005 42.262C47.4905 42.1833 47.663 42.0678 47.8083 41.9222C48.4197 41.3108 48.4197 40.3197 47.8083 39.7083L45.0862 36.9861ZM55.7137 29.575L53.6598 31.6291L52.1228 30.092L53.9437 28.2711C54.5551 27.6597 54.5551 26.6686 53.9437 26.0572C53.3322 25.4458 52.3412 25.4459 51.7298 26.0572L49.9089 27.8781L48.3718 26.3411L50.4259 24.2872C51.0373 23.6758 51.0373 22.6847 50.4259 22.0733C49.8145 21.4619 48.8236 21.4619 48.212 22.0733L45.0511 25.2342C44.9057 25.3796 44.7903 25.5522 44.7116 25.7421C44.6329 25.9321 44.5924 26.1356 44.5924 26.3412C44.5924 26.5469 44.6329 26.7504 44.7116 26.9404C44.7903 27.1303 44.9057 27.3029 45.0511 27.4483L52.5529 34.95C52.6983 35.0954 52.8709 35.2107 53.0609 35.2894C53.2508 35.3681 53.4544 35.4086 53.66 35.4086C53.8656 35.4086 54.0692 35.368 54.2591 35.2893C54.4491 35.2106 54.6217 35.0953 54.767 34.9498L57.9278 31.7889C58.5392 31.1775 58.5392 30.1864 57.9278 29.575C57.3161 28.9634 56.325 28.9636 55.7137 29.575ZM58.81 18.9769L56.9892 20.7978L55.4522 19.2608L57.5062 17.2069C58.1176 16.5955 58.1176 15.6044 57.5062 14.993C56.8948 14.3817 55.9039 14.3816 55.2923 14.993L52.1314 18.1539C51.986 18.2993 51.8706 18.4718 51.7919 18.6618C51.7132 18.8517 51.6727 19.0553 51.6727 19.2609C51.6727 19.4665 51.7132 19.6701 51.7919 19.8601C51.8706 20.05 51.986 20.2226 52.1314 20.368L59.6333 27.8698C59.7785 28.0154 59.9511 28.1308 60.141 28.2095C60.331 28.2882 60.5347 28.3285 60.7403 28.3283C60.9459 28.3285 61.1496 28.2882 61.3395 28.2095C61.5295 28.1308 61.7021 28.0154 61.8473 27.8698L65.0083 24.7089C65.6197 24.0975 65.6197 23.1064 65.0083 22.495C64.397 21.8836 63.4061 21.8836 62.7944 22.495L60.7403 24.5491L59.2033 23.012L61.0242 21.1911C61.6356 20.5797 61.6356 19.5886 61.0242 18.9772C60.4125 18.3655 59.4215 18.3655 58.81 18.9769ZM28.0614 42.1547C25.3637 44.8523 25.3637 49.2419 28.0614 51.9395C29.4103 53.2883 31.182 53.9628 32.9537 53.9628C34.7256 53.9628 36.4973 53.2884 37.8462 51.9395C40.5439 49.2419 40.5439 44.8523 37.8462 42.1547C35.1484 39.457 30.759 39.457 28.0614 42.1547ZM35.6322 49.7255C34.1553 51.2025 31.7522 51.2025 30.2751 49.7255C28.7981 48.2486 28.7981 45.8455 30.2751 44.3684C31.0136 43.6298 31.9836 43.2608 32.9536 43.2608C33.9236 43.2608 34.8936 43.63 35.6322 44.3684C37.1092 45.8455 37.1092 48.2486 35.6322 49.7255Z" fill="currentColor"/>
<path d="M79.0838 16.86L63.1409 0.917187C62.5496 0.325781 61.7634 0 60.9269 0C60.0905 0 59.3043 0.325625 58.713 0.917031L53.4821 6.14797C48.8491 4.30781 43.7937 3.42516 38.7926 3.59016C37.9285 3.61875 37.2512 4.34234 37.2798 5.20656C37.2862 5.41215 37.3331 5.61445 37.4179 5.80186C37.5027 5.98926 37.6236 6.15808 37.7738 6.29864C37.924 6.43919 38.1004 6.54871 38.293 6.62091C38.4856 6.69311 38.6906 6.72657 38.8962 6.71938C43.0127 6.5825 47.169 7.22625 51.0473 8.58297L45.9044 13.7256C41.6985 12.7866 37.2993 12.8647 33.1251 13.9594C28.5304 15.1645 24.3208 17.5825 20.9513 20.9519C17.5818 24.3214 15.1638 28.5311 13.9587 33.1256C12.8638 37.2997 12.7858 41.6989 13.7249 45.9048L8.57897 51.0509C6.65944 45.5934 6.19507 39.7434 7.24366 33.9944C8.45944 27.3292 11.6444 21.2642 16.4546 16.4547C19.1826 13.7253 22.3199 11.5131 25.7794 9.87984C26.5613 9.51062 26.8958 8.57766 26.5266 7.79578C26.1574 7.01406 25.2246 6.67969 24.4426 7.04859C20.6562 8.83641 17.2235 11.2564 14.2404 14.2411C8.97835 19.5023 5.49382 26.1386 4.16335 33.4327C2.92679 40.212 3.61476 47.1206 6.14741 53.4822L0.916318 58.7136C-0.304463 59.9344 -0.304463 61.9206 0.916318 63.1414L16.8594 79.0845C17.4699 79.6948 18.2716 80 19.0733 80C19.8751 80 20.6768 79.6948 21.2873 79.0845L26.5199 73.8519C30.824 75.5658 35.3779 76.4358 39.973 76.4358C42.1702 76.4358 44.3768 76.2372 46.5696 75.8372C53.8626 74.5072 60.499 71.0233 65.7612 65.7617C71.0227 60.4995 74.5066 53.8633 75.8365 46.5703C77.0727 39.7914 76.3841 32.8827 73.8508 26.5208L79.0837 21.288C80.3044 20.0672 80.3044 18.0808 79.0838 16.86ZM16.9871 33.9202C18.0515 29.8619 20.1877 26.1431 23.1652 23.1659C26.1424 20.1886 29.8612 18.0523 33.9194 16.988C36.9493 16.1934 40.113 16.0069 43.2065 16.4237L16.4229 43.2072C16.0058 40.1136 16.1924 36.9498 16.9871 33.9202ZM72.7565 46.0086C71.5413 52.6727 68.3568 58.7378 63.5474 63.5478C58.7373 68.3573 52.6723 71.5419 46.0079 72.7572C40.2591 73.8053 34.409 73.3405 28.9512 71.4205L34.0958 66.2758C36.0351 66.7085 38.016 66.9266 40.0029 66.9263C42.3151 66.9262 44.6282 66.6314 46.8749 66.042C51.4696 64.8369 55.6793 62.4189 59.0488 59.0495C62.4184 55.68 64.8363 51.4703 66.0415 46.8758C67.1362 42.7017 67.2143 38.3023 66.2751 34.0964L71.4196 28.9519C73.3399 34.4098 73.8049 40.2598 72.7565 46.0086ZM63.5774 36.7944C63.9943 39.888 63.8079 43.0517 63.0132 46.0816C61.9487 50.1398 59.8124 53.8586 56.8351 56.8358C53.8579 59.8131 50.139 61.9494 46.081 63.0139C43.0512 63.8086 39.8873 63.9952 36.7938 63.5783L63.5774 36.7944ZM76.8699 19.0741L19.0733 76.8706L3.13022 60.9275L60.9268 3.13094L76.8712 19.0725L76.8699 19.0741Z" fill="currentColor"/>
<path d="M32.0833 7.65313C32.9336 7.50735 33.5048 6.69969 33.3589 5.84922C33.2129 4.99875 32.4054 4.42766 31.555 4.5736C30.7047 4.71953 30.1334 5.52703 30.2793 6.3775C30.4253 7.22781 31.2329 7.79906 32.0833 7.65313Z" fill="currentColor"/>
</svg>
