<svg width="100%" height="100%" viewBox="0 0 30 30" fill="none" xmlns="http://www.w3.org/2000/svg">
<path d="M25.3711 19.5059H9.31055C9.04687 19.5146 8.82422 19.6318 8.63965 19.8105C8.12402 20.3115 7.61133 20.8125 7.0957 21.3135C6.27539 22.1133 5.45215 22.9102 4.63184 23.71L2.9707 25.3271C2.94141 25.3535 2.91504 25.3828 2.88574 25.4092C3.38672 25.6172 3.88477 25.8223 4.38574 26.0303V5.77148C4.38574 5.70996 4.38867 5.64844 4.39746 5.58691C4.38574 5.66602 4.37695 5.74219 4.36523 5.82129C4.37988 5.73047 4.40332 5.64551 4.43848 5.55762L4.35059 5.76855C4.37695 5.70996 4.40332 5.65137 4.43848 5.59863C4.49121 5.51367 4.54394 5.51953 4.3916 5.6543C4.41504 5.63379 4.43262 5.60742 4.45605 5.58398C4.46191 5.57813 4.52344 5.5166 4.52637 5.51953C4.53223 5.52539 4.31543 5.66016 4.45605 5.57812C4.51758 5.54297 4.57617 5.50781 4.64062 5.47852L4.42969 5.56641C4.51465 5.53125 4.60254 5.50781 4.69336 5.49316C4.61426 5.50488 4.53809 5.51367 4.45898 5.52539C4.68164 5.49609 4.91602 5.51367 5.1416 5.51367H25.3418C25.4033 5.51367 25.4648 5.5166 25.5264 5.52539C25.4473 5.51367 25.3711 5.50488 25.292 5.49316C25.3828 5.50781 25.4678 5.53125 25.5557 5.56641L25.3447 5.47852C25.4033 5.50488 25.4619 5.53125 25.5146 5.56641C25.5996 5.61914 25.5937 5.67187 25.459 5.51953C25.4795 5.54297 25.5059 5.56055 25.5293 5.58398C25.5352 5.58984 25.5967 5.65137 25.5937 5.6543C25.5879 5.66016 25.4531 5.44336 25.5352 5.58398C25.5703 5.64551 25.6055 5.7041 25.6348 5.76855L25.5469 5.55762C25.582 5.64258 25.6055 5.73047 25.6201 5.82129C25.6084 5.74219 25.5996 5.66602 25.5879 5.58691C25.6084 5.74805 25.5996 5.91504 25.5996 6.07617V17.6396C25.5996 18.1758 25.6055 18.7148 25.5996 19.251C25.5996 19.3096 25.5967 19.3682 25.5879 19.4268C25.5996 19.3477 25.6084 19.2715 25.6201 19.1924C25.6055 19.2832 25.582 19.3682 25.5469 19.4561L25.6348 19.2451C25.6084 19.3037 25.582 19.3623 25.5469 19.415C25.4941 19.5 25.4414 19.4941 25.5937 19.3594C25.5703 19.3799 25.5527 19.4062 25.5293 19.4297C25.5234 19.4355 25.4619 19.4971 25.459 19.4941C25.4531 19.4883 25.6699 19.3535 25.5293 19.4355C25.4678 19.4707 25.4092 19.5059 25.3447 19.5352L25.5557 19.4473C25.4707 19.4824 25.3828 19.5059 25.292 19.5205C25.3711 19.5088 25.4473 19.5 25.5264 19.4883C25.4795 19.5029 25.4268 19.5059 25.3711 19.5059C24.9111 19.5146 24.4717 19.9043 24.4922 20.3848C24.5127 20.8535 24.8789 21.2725 25.3711 21.2637C26.4844 21.2432 27.3574 20.3437 27.3633 19.2363V7.74902C27.3633 7.09863 27.3662 6.44824 27.3633 5.79785C27.3633 5.56055 27.334 5.31445 27.249 5.09473C26.9502 4.33301 26.3115 3.84082 25.4941 3.76758C25.3711 3.75586 25.2451 3.76172 25.1221 3.76172H4.81348C4.44727 3.76172 4.10156 3.81152 3.76172 3.9668C3.04395 4.28906 2.63672 5.05078 2.63672 5.81836V26.0332C2.63672 26.3848 2.85645 26.7012 3.17578 26.8359C3.50098 26.9736 3.87891 26.9033 4.13672 26.6543C4.79004 26.0186 5.44336 25.3828 6.09961 24.7471C7.14258 23.7334 8.18262 22.7197 9.22559 21.709C9.46289 21.4775 9.70312 21.2461 9.94043 21.0146C9.73242 21.0996 9.52734 21.1875 9.31934 21.2725H23.4082C24.0557 21.2725 24.7031 21.2842 25.3477 21.2725H25.377C25.8369 21.2725 26.2764 20.8682 26.2559 20.3936C26.2295 19.9102 25.8662 19.5059 25.3711 19.5059Z" fill="currentColor"/>
<path d="M9.8525 11.543H7.96871C7.50875 11.543 7.06929 11.9473 7.0898 12.4219C7.11031 12.8994 7.47652 13.3008 7.96871 13.3008H9.8525C10.3125 13.3008 10.7519 12.8965 10.7314 12.4219C10.7109 11.9443 10.3447 11.543 9.8525 11.543ZM15.9433 11.543H14.0595C13.5996 11.543 13.1601 11.9473 13.1806 12.4219C13.2011 12.8994 13.5673 13.3008 14.0595 13.3008H15.9433C16.4033 13.3008 16.8427 12.8965 16.8222 12.4219C16.7988 11.9443 16.4355 11.543 15.9433 11.543ZM22.0312 11.543H20.1474C19.6875 11.543 19.248 11.9473 19.2685 12.4219C19.289 12.8994 19.6552 13.3008 20.1474 13.3008H22.0312C22.4912 13.3008 22.9306 12.8965 22.9101 12.4219C22.8896 11.9443 22.5263 11.543 22.0312 11.543Z" fill="currentColor"/>
</svg>
