<svg width="100%" height="100%" viewBox="0 0 24 24" fill="none" xmlns="http://www.w3.org/2000/svg">
<path d="M16 3.99997H18C18.5304 3.99997 19.0391 4.21068 19.4142 4.58576C19.7893 4.96083 20 5.46954 20 5.99997V20C20 20.5304 19.7893 21.0391 19.4142 21.4142C19.0391 21.7893 18.5304 22 18 22H6C5.46957 22 4.96086 21.7893 4.58579 21.4142C4.21071 21.0391 4 20.5304 4 20V5.99997C4 5.46954 4.21071 4.96083 4.58579 4.58576C4.96086 4.21068 5.46957 3.99997 6 3.99997H8M12 11H16M12 16H16M8 11H8.01M8 16H8.01M9 1.99997H15C15.5523 1.99997 16 2.44768 16 2.99997V4.99997C16 5.55225 15.5523 5.99997 15 5.99997H9C8.44772 5.99997 8 5.55225 8 4.99997V2.99997C8 2.44768 8.44772 1.99997 9 1.99997Z" stroke="currentColor" stroke-width="2" stroke-linecap="round" stroke-linejoin="round"/>
</svg>
