<svg width="100%" height="100%" viewBox="0 0 80 80" fill="none" xmlns="http://www.w3.org/2000/svg">
<path d="M77.9119 67.9144L63.2837 53.2863L63.9129 52.6569C64.5232 52.0466 64.5232 51.0572 63.9129 50.4467L58.4716 45.0055C60.2055 41.6096 61.3146 37.9005 61.7029 34.0717C62.4077 27.1119 60.722 20.0586 56.9566 14.2095C56.4898 13.4839 55.5223 13.2745 54.7973 13.742C54.0716 14.2091 53.8623 15.1758 54.3291 15.9014C61.2859 26.7072 59.812 41.12 50.8599 50.3272L50.3387 50.8478C45.1152 55.9447 38.2354 58.7488 30.9234 58.7488C23.4941 58.7488 16.5099 55.8558 11.2566 50.603C0.412579 39.7589 0.412579 22.1142 11.2566 11.2702C20.4498 2.07642 35.0438 0.504235 45.9582 7.53048C46.6838 7.99752 47.6507 7.78814 48.1176 7.06236C48.5851 6.33736 48.3757 5.36986 47.6501 4.90298C41.801 1.13752 34.7479 -0.548109 27.788 0.156891C20.7287 0.872203 14.0734 4.03377 9.04711 9.06002C-3.0157 21.123 -3.0157 40.7502 9.04711 52.8125C14.8901 58.656 22.6593 61.8744 30.9234 61.8744C35.9009 61.8744 40.6982 60.705 45.0048 58.4992L50.4327 63.9277C50.5776 64.073 50.7498 64.1883 50.9394 64.2668C51.129 64.3454 51.3322 64.3857 51.5374 64.3855C51.9377 64.3855 52.3374 64.2322 52.6427 63.9277L61.0741 55.4963L75.7018 70.1239C76.4488 70.871 76.8602 71.8641 76.8602 72.9205C76.8602 73.9764 76.4488 74.9695 75.7018 75.7166C74.9554 76.4636 73.9616 76.875 72.9059 76.875C71.8493 76.875 70.8562 76.4636 70.1091 75.7166L63.2244 68.8317C62.614 68.2214 61.6246 68.2214 61.0151 68.8317C60.4046 69.4422 60.4046 70.4316 61.0151 71.0413L67.8998 77.9266C69.2369 79.2641 71.0143 80 72.9059 80C74.7966 80 76.5746 79.2641 77.9119 77.9266C79.2491 76.5894 79.9854 74.8114 79.9854 72.9205C79.9854 71.0291 79.2491 69.2511 77.9119 67.9144ZM51.5374 60.6128L48.2652 57.3406L57.3266 48.28L60.5987 51.5522L59.9694 52.1814L51.5374 60.6128Z" fill="currentColor"/>
<path d="M44.5625 18.5816C44.5089 18.2604 44.3563 17.964 44.126 17.7337C43.8957 17.5035 43.5993 17.3509 43.2781 17.2973C40.448 16.825 37.5469 17.7545 35.5181 19.7839L33.4211 21.8811L20.1934 19.7944C19.95 19.756 19.701 19.7758 19.4667 19.852C19.2323 19.9283 19.0194 20.0589 18.8451 20.2331L15.5126 23.5656C15.3393 23.7391 15.2092 23.9509 15.1329 24.184C15.0566 24.417 15.0362 24.6648 15.0733 24.9072C15.1105 25.1497 15.2043 25.3801 15.3472 25.5797C15.49 25.7793 15.6777 25.9424 15.8953 26.0559L24.6698 30.6323L22.8484 32.453L20.0141 31.8017C19.756 31.7425 19.4872 31.7498 19.2328 31.8229C18.9784 31.8961 18.7467 32.0326 18.5595 32.2198L15.5109 35.2686C15.335 35.4446 15.2036 35.6601 15.1277 35.8972C15.0518 36.1342 15.0336 36.3859 15.0745 36.6314C15.1158 36.8768 15.215 37.1088 15.3639 37.3082C15.5128 37.5075 15.7072 37.6685 15.9308 37.7777L21.4001 40.4448L24.0826 45.9308C24.2113 46.1934 24.4111 46.4147 24.6592 46.5696C24.9073 46.7244 25.1939 46.8066 25.4864 46.8067C25.8973 46.8067 26.2958 46.6442 26.5911 46.3489L29.6398 43.3002C29.8273 43.1127 29.964 42.8806 30.037 42.6257C30.1101 42.3709 30.117 42.1016 30.0573 41.8433L29.4031 39.0148L31.2273 37.1898L35.8039 45.9644C35.9174 46.1819 36.0805 46.3697 36.2801 46.5126C36.4796 46.6554 36.7099 46.7493 36.9525 46.7866C37.0309 46.7985 37.1101 46.8044 37.1894 46.8042C37.6036 46.8043 38.001 46.6399 38.2941 46.347L41.6266 43.0145C41.8008 42.8403 41.9314 42.6273 42.0076 42.393C42.0839 42.1587 42.1037 41.9097 42.0655 41.6663L39.9786 28.4394L42.0758 26.3416C44.1052 24.3128 45.0348 21.4119 44.5623 18.5816H44.5625ZM19.2286 24.2694L20.4926 23.0053L30.688 24.6136L26.9861 28.3155L19.2286 24.2694ZM38.855 41.3672L37.5903 42.6313L33.5444 34.8736L37.2467 31.1719L38.855 41.3672ZM39.8664 24.132L30.5316 33.4669L30.5212 33.4772L26.5808 37.4183C26.3932 37.6057 26.2564 37.8378 26.1834 38.0927C26.1103 38.3476 26.1034 38.6168 26.1633 38.8752L26.8176 41.7034L25.9289 42.5922L23.9716 38.5895C23.8184 38.277 23.5656 38.0242 23.2525 37.8717L19.2694 35.9289L20.1575 35.0414L22.9914 35.6928C23.5162 35.8131 24.0656 35.6548 24.4464 35.2747L37.7276 21.9934C38.748 20.9748 40.1119 20.3736 41.5522 20.3075C41.4861 21.7478 40.8849 23.1116 39.8662 24.132H39.8664Z" fill="currentColor"/>
<path d="M30.9235 6.87375C17.655 6.87375 6.86035 17.6684 6.86035 30.9362C6.86035 44.2047 17.655 54.9994 30.9235 54.9994C44.1913 54.9994 54.986 44.2047 54.986 30.9362C54.986 17.6684 44.1913 6.87375 30.9235 6.87375ZM30.9235 51.8744C19.3782 51.8744 9.98535 42.4817 9.98535 30.9362C9.98535 19.3914 19.3782 9.99875 30.9235 9.99875C42.4683 9.99875 51.861 19.3914 51.861 30.9362C51.861 42.4816 42.4683 51.8744 30.9235 51.8744ZM51.6957 11.7273C52.1096 11.7259 52.5062 11.5614 52.7997 11.2695C53.092 10.976 53.2568 10.5791 53.2582 10.1648C53.2582 9.75391 53.091 9.35062 52.7997 9.06015C52.5061 8.76847 52.1095 8.60402 51.6957 8.60234C51.2843 8.60234 50.8814 8.76953 50.5891 9.06015C50.2977 9.35407 50.1339 9.75097 50.1332 10.1648C50.1332 10.5773 50.2985 10.9789 50.5891 11.2695C50.8835 11.5615 51.281 11.7259 51.6957 11.7273ZM57.7002 63.9545C57.2888 63.9545 56.8861 64.1217 56.5955 64.4123C56.3035 64.706 56.139 65.1029 56.1377 65.517C56.1377 65.9295 56.3049 66.3311 56.5955 66.6217C56.8892 66.9137 57.2861 67.0782 57.7002 67.0795C58.1111 67.0795 58.5138 66.9123 58.8049 66.6217C59.0955 66.3311 59.2627 65.9295 59.2627 65.517C59.2627 65.1056 59.0955 64.7028 58.8049 64.4123C58.5111 64.1206 58.1143 63.9561 57.7002 63.9545Z" fill="currentColor"/>
</svg>
